<?xml version="1.0" encoding="UTF-8"?>
<!DOCTYPE svg PUBLIC "-//W3C//DTD SVG 1.1//EN" "http://www.w3.org/Graphics/SVG/1.1/DTD/svg11.dtd">
<!-- Creator: CorelDRAW -->
<svg xmlns="http://www.w3.org/2000/svg" xml:space="preserve" width="8mm" height="8mm" version="1.1" style="shape-rendering:geometricPrecision; text-rendering:geometricPrecision; image-rendering:optimizeQuality; fill-rule:evenodd; clip-rule:evenodd"
viewBox="0 0 800 800"
 xmlns:xlink="http://www.w3.org/1999/xlink"
 xmlns:xodm="http://www.corel.com/coreldraw/odm/2003">
 <defs>
  <style type="text/css">
   <![CDATA[
    .fil0 {fill:#854539}
    .fil1 {fill:#85463A}
    .fil2 {fill:#86463A}
    .fil3 {fill:#86463B}
    .fil4 {fill:#86473B}
    .fil5 {fill:#87473B}
    .fil6 {fill:#87473C}
    .fil7 {fill:#87483C}
    .fil8 {fill:#87483D}
    .fil9 {fill:#88493D}
    .fil10 {fill:#88493E}
    .fil11 {fill:#884A3E}
    .fil12 {fill:#894A3E}
    .fil13 {fill:#894A3F}
    .fil14 {fill:#894B3F}
    .fil15 {fill:#894B40}
    .fil16 {fill:#8A4B40}
    .fil17 {fill:#8A4C40}
    .fil18 {fill:#8A4C41}
    .fil19 {fill:#8B4D42}
    .fil20 {fill:#8B4E42}
    .fil21 {fill:#8C4E43}
    .fil22 {fill:#8C4F44}
    .fil23 {fill:#8D5045}
    .fil24 {fill:#8E5146}
    .fil25 {fill:#8E5247}
    .fil26 {fill:#8F5247}
    .fil27 {fill:#8F5348}
    .fil28 {fill:#905349}
    .fil29 {fill:#905449}
    .fil30 {fill:#90544A}
    .fil31 {fill:#91554A}
    .fil32 {fill:#91554B}
    .fil33 {fill:#91564B}
    .fil34 {fill:#92564C}
    .fil35 {fill:#92574D}
    .fil36 {fill:#93584E}
    .fil37 {fill:#94594F}
    .fil38 {fill:#945A50}
    .fil39 {fill:#955A50}
    .fil40 {fill:#955B51}
    .fil41 {fill:#965B52}
    .fil42 {fill:#965C52}
    .fil43 {fill:#965D53}
    .fil44 {fill:#975D53}
    .fil45 {fill:#975E54}
    .fil46 {fill:#985E55}
    .fil47 {fill:#985F55}
    .fil48 {fill:#985F56}
    .fil49 {fill:#996057}
    .fil50 {fill:#996157}
    .fil51 {fill:#9A6158}
    .fil52 {fill:#9A6259}
    .fil53 {fill:#9B6259}
    .fil54 {fill:#9B635A}
    .fil55 {fill:#9C645B}
    .fil56 {fill:#9C655C}
    .fil57 {fill:#9D655C}
    .fil58 {fill:#9D665D}
    .fil59 {fill:#9E675E}
    .fil60 {fill:#9F685F}
    .fil61 {fill:#9F6860}
    .fil62 {fill:#9F6960}
    .fil63 {fill:#A06A61}
    .fil64 {fill:#A06A62}
    .fil65 {fill:#A16B63}
    .fil66 {fill:#A16C63}
    .fil67 {fill:#A26C64}
    .fil68 {fill:#A26D65}
    .fil69 {fill:#A36D65}
    .fil70 {fill:#A36E66}
    .fil71 {fill:#A46F67}
    .fil72 {fill:#A57068}
    .fil73 {fill:#A57169}
    .fil74 {fill:#A6716A}
    .fil75 {fill:#A6726A}
    .fil76 {fill:#A6736B}
    .fil77 {fill:#A7736C}
    .fil78 {fill:#A7746C}
    .fil79 {fill:#A8756D}
    .fil80 {fill:#A8756E}
    .fil81 {fill:#A9766F}
    .fil82 {fill:#A9776F}
    .fil83 {fill:#AA7770}
    .fil84 {fill:#AA7871}
    .fil85 {fill:#AB7972}
    .fil86 {fill:#AC7A73}
    .fil87 {fill:#AC7B74}
    .fil88 {fill:#AD7B74}
    .fil89 {fill:#AD7C75}
    .fil90 {fill:#AE7D76}
    .fil91 {fill:#AE7D77}
    .fil92 {fill:#AF7E77}
    .fil93 {fill:#AF7E78}
    .fil94 {fill:#B07F79}
    .fil95 {fill:#B0807A}
    .fil96 {fill:#B1807A}
    .fil97 {fill:#B1817B}
    .fil98 {fill:#B2827C}
    .fil99 {fill:#B3837D}
    .fil100 {fill:#B3847E}
    .fil101 {fill:#B4847F}
    .fil102 {fill:#B4857F}
    .fil103 {fill:#B58680}
    .fil104 {fill:#B58681}
    .fil105 {fill:#B68782}
    .fil106 {fill:#B68882}
    .fil107 {fill:#B78883}
    .fil108 {fill:#B78984}
    .fil109 {fill:#B78A84}
    .fil110 {fill:#B88A85}
    .fil111 {fill:#B88B86}
    .fil112 {fill:#B98C87}
    .fil113 {fill:#BA8D88}
    .fil114 {fill:#BA8E89}
    .fil115 {fill:#BB8E89}
    .fil116 {fill:#BB8F8A}
    .fil117 {fill:#BC8F8B}
    .fil118 {fill:#BC908B}
    .fil119 {fill:#BD918C}
    .fil120 {fill:#BD918D}
    .fil121 {fill:#BE928E}
    .fil122 {fill:#BE938E}
    .fil123 {fill:#BE938F}
    .fil124 {fill:#BF9490}
    .fil125 {fill:#C09591}
    .fil126 {fill:#C09692}
    .fil127 {fill:#C19692}
    .fil128 {fill:#C19793}
    .fil129 {fill:#C29894}
    .fil130 {fill:#C29995}
    .fil131 {fill:#C39995}
    .fil132 {fill:#C39A96}
    .fil133 {fill:#C49A97}
    .fil134 {fill:#C49B97}
    .fil135 {fill:#C59C98}
    .fil136 {fill:#C59C99}
    .fil137 {fill:#C59D99}
    .fil138 {fill:#C69D9A}
    .fil139 {fill:#C69E9B}
    .fil140 {fill:#C79E9B}
    .fil141 {fill:#C79F9C}
    .fil142 {fill:#C7A09C}
    .fil143 {fill:#C8A09D}
    .fil144 {fill:#C8A19E}
    .fil145 {fill:#C9A19E}
    .fil146 {fill:#C9A29F}
    .fil147 {fill:#CAA3A0}
    .fil148 {fill:#CBA4A1}
    .fil149 {fill:#CBA5A2}
    .fil150 {fill:#CCA5A3}
    .fil151 {fill:#CCA6A3}
    .fil152 {fill:#CCA6A4}
    .fil153 {fill:#CDA7A4}
    .fil154 {fill:#CDA7A5}
    .fil155 {fill:#CDA8A5}
    .fil156 {fill:#CEA8A6}
    .fil157 {fill:#CEA9A7}
    .fil158 {fill:#CFA9A7}
    .fil159 {fill:#CFAAA8}
    .fil160 {fill:#D0ABA9}
    .fil161 {fill:#D1ACAA}
    .fil162 {fill:#D1ADAB}
    .fil163 {fill:#D2ADAC}
    .fil164 {fill:#D2AEAC}
    .fil165 {fill:#D3AFAD}
    .fil166 {fill:#D3AFAE}
    .fil167 {fill:#D3B0AE}
    .fil168 {fill:#D4B0AE}
    .fil169 {fill:#D4B0AF}
    .fil170 {fill:#D4B1AF}
    .fil171 {fill:#D4B1B0}
    .fil172 {fill:#D5B1B0}
    .fil173 {fill:#D5B2B0}
    .fil174 {fill:#D5B2B1}
    .fil175 {fill:#D6B3B1}
    .fil176 {fill:#D6B3B2}
    .fil177 {fill:#D6B4B2}
    .fil178 {fill:#D6B4B3}
    .fil179 {fill:#D7B4B3}
    .fil180 {fill:#D7B5B3}
    .fil181 {fill:#D7B5B4}
    .fil182 {fill:#D8B5B4}
    .fil183 {fill:#D8B6B5}
    .fil184 {fill:#FEFEFE;fill-rule:nonzero}
   ]]>
  </style>
    <clipPath id="id0">
     <path d="M393.8 31.02c-98.73,88.5 -226.45,138.28 -359,139.99 -5.06,30.19 -7.65,61.05 -7.65,91.69 0,0 0,0.11 0,0.11 0,233.04 146.97,440.96 366.65,518.56 219.68,-77.6 366.65,-285.52 366.65,-518.56 0,0 0,-0.11 0,-0.11 0,-30.64 -2.59,-61.5 -7.59,-91.69 -132.61,-1.71 -260.33,-51.49 -359.06,-139.93l0 -0.06zm-174.36 375.46c0,-35.26 7.65,-66.67 22.88,-94.34 15.24,-27.61 36.47,-49.11 63.75,-64.51 27.28,-15.4 58.19,-23.1 92.79,-23.1 42.35,0 78.6,11.16 108.74,33.49 30.14,22.39 50.33,52.86 60.5,91.53l-95.59 0c-7.1,-14.91 -17.16,-26.29 -30.2,-34.05 -13.03,-7.81 -27.88,-11.72 -44.49,-11.72 -26.74,0 -48.46,9.3 -65.07,27.95 -16.56,18.64 -24.86,43.56 -24.86,74.75 0,31.13 8.3,56.04 24.86,74.69 16.61,18.64 38.33,27.94 65.07,27.94 16.61,0 31.46,-3.9 44.49,-11.72 13.04,-7.75 23.1,-19.14 30.2,-34.04l95.59 0c-10.17,38.67 -30.36,69.03 -60.5,91.25 -30.14,22.16 -66.39,33.27 -108.74,33.27 -34.6,0 -65.51,-7.7 -92.79,-23.1 -27.28,-15.45 -48.51,-36.85 -63.75,-64.29 -15.23,-27.45 -22.88,-58.8 -22.88,-94z"/>
    </clipPath>
 </defs>
 <g id="Layer_x0020_1">
  <metadata id="CorelCorpID_0Corel-Layer"/>
  <g data-name="Group 1">
   <g style="clip-path:url(#id0)">
    <polygon id="Path_1" class="fil0" points="393.8,406.2 392.2,936.79 382.62,936.67 "/>
    <polygon id="_1" class="fil0" points="393.8,406.2 384.22,936.69 376.23,936.49 "/>
    <polygon id="_2" class="fil0" points="393.8,406.2 377.83,936.53 369.85,936.23 "/>
    <polygon id="_3" class="fil0" points="393.8,406.2 371.45,936.29 363.47,935.88 "/>
    <polygon id="_4" class="fil0" points="393.8,406.2 365.07,935.96 357.1,935.46 "/>
    <polygon id="_5" class="fil0" points="393.8,406.2 358.69,935.56 350.73,934.96 "/>
    <polygon id="_6" class="fil0" points="393.8,406.2 352.32,935.08 344.36,934.38 "/>
    <polygon id="_7" class="fil0" points="393.8,406.2 345.95,934.52 338.01,933.71 "/>
    <polygon id="_8" class="fil0" points="393.8,406.2 339.6,933.87 331.66,932.97 "/>
    <polygon id="_9" class="fil1" points="393.8,406.2 333.25,933.15 325.32,932.15 "/>
    <polygon id="_10" class="fil1" points="393.8,406.2 326.91,932.35 319,931.24 "/>
    <polygon id="_11" class="fil2" points="393.8,406.2 320.58,931.46 312.68,930.26 "/>
    <polygon id="_12" class="fil2" points="393.8,406.2 314.26,930.5 306.38,929.2 "/>
    <polygon id="_13" class="fil2" points="393.8,406.2 307.95,929.46 300.09,928.06 "/>
    <polygon id="_14" class="fil2" points="393.8,406.2 301.66,928.34 293.81,926.83 "/>
    <polygon id="_15" class="fil2" points="393.8,406.2 295.38,927.14 287.55,925.54 "/>
    <polygon id="_16" class="fil3" points="393.8,406.2 289.11,925.86 281.3,924.16 "/>
    <polygon id="_17" class="fil4" points="393.8,406.2 282.87,924.5 275.08,922.7 "/>
    <polygon id="_18" class="fil4" points="393.8,406.2 276.63,923.06 268.87,921.16 "/>
    <polygon id="_19" class="fil4" points="393.8,406.2 270.42,921.54 262.68,919.55 "/>
    <polygon id="_20" class="fil5" points="393.8,406.2 264.22,919.95 256.5,917.86 "/>
    <polygon id="_21" class="fil6" points="393.8,406.2 258.05,918.28 250.35,916.09 "/>
    <polygon id="_22" class="fil7" points="393.8,406.2 251.89,916.53 244.23,914.24 "/>
    <polygon id="_23" class="fil7" points="393.8,406.2 245.76,914.7 238.12,912.32 "/>
    <polygon id="_24" class="fil7" points="393.8,406.2 239.65,912.79 232.04,910.32 "/>
    <polygon id="_25" class="fil8" points="393.8,406.2 233.56,910.81 225.98,908.24 "/>
    <polygon id="_26" class="fil9" points="393.8,406.2 227.5,908.75 219.95,906.09 "/>
    <polygon id="_27" class="fil9" points="393.8,406.2 221.46,906.62 213.94,903.86 "/>
    <polygon id="_28" class="fil9" points="393.8,406.2 215.45,904.41 207.97,901.55 "/>
    <polygon id="_29" class="fil10" points="393.8,406.2 209.46,902.12 202.02,899.17 "/>
    <polygon id="_30" class="fil11" points="393.8,406.2 203.5,899.76 196.09,896.72 "/>
    <polygon id="_31" class="fil12" points="393.8,406.2 197.58,897.32 190.2,894.19 "/>
    <polygon id="_32" class="fil13" points="393.8,406.2 191.68,894.81 184.34,891.58 "/>
    <polygon id="_33" class="fil13" points="393.8,406.2 185.81,892.23 178.52,888.91 "/>
    <polygon id="_34" class="fil14" points="393.8,406.2 179.97,889.57 172.72,886.16 "/>
    <polygon id="_35" class="fil15" points="393.8,406.2 174.17,886.84 166.96,883.33 "/>
    <polygon id="_36" class="fil16" points="393.8,406.2 168.4,884.03 161.23,880.44 "/>
    <polygon id="_37" class="fil17" points="393.8,406.2 162.66,881.16 155.54,877.47 "/>
    <polygon id="_38" class="fil18" points="393.8,406.2 156.96,878.21 149.88,874.43 "/>
    <polygon id="_39" class="fil18" points="393.8,406.2 151.3,875.18 144.26,871.32 "/>
    <polygon id="_40" class="fil19" points="393.8,406.2 145.67,872.09 138.68,868.14 "/>
    <polygon id="_41" class="fil19" points="393.8,406.2 140.08,868.93 133.14,864.89 "/>
    <polygon id="_42" class="fil20" points="393.8,406.2 134.53,865.7 127.64,861.57 "/>
    <polygon id="_43" class="fil21" points="393.8,406.2 129.01,862.39 122.17,858.18 "/>
    <polygon id="_44" class="fil21" points="393.8,406.2 123.54,859.02 116.75,854.72 "/>
    <polygon id="_45" class="fil22" points="393.8,406.2 118.11,855.58 111.37,851.19 "/>
    <polygon id="_46" class="fil22" points="393.8,406.2 112.72,852.07 106.04,847.6 "/>
    <polygon id="_47" class="fil23" points="393.8,406.2 107.37,848.49 100.74,843.94 "/>
    <polygon id="_48" class="fil23" points="393.8,406.2 102.07,844.85 95.5,840.21 "/>
    <polygon id="_49" class="fil23" points="393.8,406.2 96.81,841.14 90.29,836.42 "/>
    <polygon id="_50" class="fil24" points="393.8,406.2 91.6,837.36 85.14,832.56 "/>
    <polygon id="_51" class="fil24" points="393.8,406.2 86.43,833.52 80.03,828.64 "/>
    <polygon id="_52" class="fil25" points="393.8,406.2 81.31,829.61 74.96,824.65 "/>
    <polygon id="_53" class="fil26" points="393.8,406.2 76.23,825.64 69.95,820.6 "/>
    <polygon id="_54" class="fil27" points="393.8,406.2 71.21,821.61 64.98,816.48 "/>
    <polygon id="_55" class="fil27" points="393.8,406.2 66.23,817.51 60.07,812.31 "/>
    <polygon id="_56" class="fil28" points="393.8,406.2 61.3,813.35 55.21,808.07 "/>
    <polygon id="_57" class="fil29" points="393.8,406.2 56.42,809.12 50.39,803.77 "/>
    <polygon id="_58" class="fil30" points="393.8,406.2 51.6,804.84 45.63,799.41 "/>
    <polygon id="_59" class="fil31" points="393.8,406.2 46.83,800.5 40.92,794.99 "/>
    <polygon id="_60" class="fil32" points="393.8,406.2 42.1,796.09 36.27,790.52 "/>
    <polygon id="_61" class="fil33" points="393.8,406.2 37.44,791.63 31.67,785.98 "/>
    <polygon id="_62" class="fil34" points="393.8,406.2 32.82,787.11 27.12,781.39 "/>
    <polygon id="_63" class="fil35" points="393.8,406.2 28.26,782.53 22.63,776.73 "/>
    <polygon id="_64" class="fil35" points="393.8,406.2 23.76,777.89 18.2,772.03 "/>
    <polygon id="_65" class="fil36" points="393.8,406.2 19.31,773.2 13.83,767.27 "/>
    <polygon id="_66" class="fil36" points="393.8,406.2 14.92,768.45 9.51,762.45 "/>
    <polygon id="_67" class="fil37" points="393.8,406.2 10.59,763.65 5.25,757.58 "/>
    <polygon id="_68" class="fil37" points="393.8,406.2 6.32,758.79 1.05,752.65 "/>
    <polygon id="_69" class="fil38" points="393.8,406.2 2.1,753.88 -3.1,747.68 "/>
    <polygon id="_70" class="fil39" points="393.8,406.2 -2.06,748.92 -7.18,742.65 "/>
    <polygon id="_71" class="fil40" points="393.8,406.2 -6.15,743.9 -11.2,737.57 "/>
    <polygon id="_72" class="fil41" points="393.8,406.2 -10.19,738.83 -15.16,732.44 "/>
    <polygon id="_73" class="fil42" points="393.8,406.2 -14.16,733.72 -19.05,727.26 "/>
    <polygon id="_74" class="fil43" points="393.8,406.2 -18.08,728.55 -22.89,722.03 "/>
    <polygon id="_75" class="fil44" points="393.8,406.2 -21.93,723.33 -26.66,716.75 "/>
    <polygon id="_76" class="fil45" points="393.8,406.2 -25.71,718.07 -30.37,711.43 "/>
    <polygon id="_77" class="fil46" points="393.8,406.2 -29.44,712.76 -34.01,706.06 "/>
    <polygon id="_78" class="fil47" points="393.8,406.2 -33.09,707.4 -37.59,700.64 "/>
    <polygon id="_79" class="fil48" points="393.8,406.2 -36.69,701.99 -41.1,695.18 "/>
    <polygon id="_80" class="fil49" points="393.8,406.2 -40.22,696.54 -44.55,689.68 "/>
    <polygon id="_81" class="fil50" points="393.8,406.2 -43.68,691.05 -47.93,684.13 "/>
    <polygon id="_82" class="fil51" points="393.8,406.2 -47.08,685.51 -51.24,678.54 "/>
    <polygon id="_83" class="fil52" points="393.8,406.2 -50.41,679.94 -54.48,672.91 "/>
    <polygon id="_84" class="fil53" points="393.8,406.2 -53.67,674.32 -57.66,667.24 "/>
    <polygon id="_85" class="fil54" points="393.8,406.2 -56.86,668.65 -60.77,661.53 "/>
    <polygon id="_86" class="fil54" points="393.8,406.2 -59.99,662.95 -63.81,655.78 "/>
    <polygon id="_87" class="fil55" points="393.8,406.2 -63.05,657.21 -66.78,649.99 "/>
    <polygon id="_88" class="fil56" points="393.8,406.2 -66.03,651.44 -69.68,644.17 "/>
    <polygon id="_89" class="fil57" points="393.8,406.2 -68.95,645.62 -72.51,638.31 "/>
    <polygon id="_90" class="fil58" points="393.8,406.2 -71.8,639.77 -75.27,632.41 "/>
    <polygon id="_91" class="fil59" points="393.8,406.2 -74.58,633.88 -77.96,626.48 "/>
    <polygon id="_92" class="fil59" points="393.8,406.2 -77.28,627.96 -80.57,620.52 "/>
    <polygon id="_93" class="fil60" points="393.8,406.2 -79.92,622.01 -83.12,614.52 "/>
    <polygon id="_94" class="fil61" points="393.8,406.2 -82.48,616.02 -85.59,608.49 "/>
    <polygon id="_95" class="fil62" points="393.8,406.2 -84.97,610 -87.99,602.44 "/>
    <polygon id="_96" class="fil63" points="393.8,406.2 -87.39,603.95 -90.32,596.35 "/>
    <polygon id="_97" class="fil64" points="393.8,406.2 -89.73,597.87 -92.57,590.23 "/>
    <polygon id="_98" class="fil65" points="393.8,406.2 -92,591.76 -94.75,584.09 "/>
    <polygon id="_99" class="fil66" points="393.8,406.2 -94.2,585.62 -96.85,577.91 "/>
    <polygon id="_100" class="fil67" points="393.8,406.2 -96.32,579.45 -98.88,571.72 "/>
    <polygon id="_101" class="fil68" points="393.8,406.2 -98.37,573.26 -100.84,565.49 "/>
    <polygon id="_102" class="fil69" points="393.8,406.2 -100.34,567.05 -102.72,559.25 "/>
    <polygon id="_103" class="fil70" points="393.8,406.2 -102.24,560.81 -104.52,552.97 "/>
    <polygon id="_104" class="fil71" points="393.8,406.2 -104.07,554.54 -106.25,546.68 "/>
    <polygon id="_105" class="fil71" points="393.8,406.2 -105.82,548.25 -107.91,540.37 "/>
    <polygon id="_106" class="fil72" points="393.8,406.2 -107.49,541.95 -109.48,534.03 "/>
    <polygon id="_107" class="fil73" points="393.8,406.2 -109.08,535.62 -110.98,527.68 "/>
    <polygon id="_108" class="fil74" points="393.8,406.2 -110.6,529.27 -112.41,521.31 "/>
    <polygon id="_109" class="fil75" points="393.8,406.2 -112.05,522.9 -113.76,514.92 "/>
    <polygon id="_110" class="fil76" points="393.8,406.2 -113.41,516.51 -115.03,508.51 "/>
    <polygon id="_111" class="fil77" points="393.8,406.2 -114.7,510.11 -116.22,502.09 "/>
    <polygon id="_112" class="fil78" points="393.8,406.2 -115.92,503.69 -117.34,495.65 "/>
    <polygon id="_113" class="fil79" points="393.8,406.2 -117.05,497.26 -118.37,489.2 "/>
    <polygon id="_114" class="fil80" points="393.8,406.2 -118.11,490.81 -119.33,482.74 "/>
    <polygon id="_115" class="fil81" points="393.8,406.2 -119.09,484.36 -120.22,476.27 "/>
    <polygon id="_116" class="fil82" points="393.8,406.2 -119.99,477.88 -121.02,469.78 "/>
    <polygon id="_117" class="fil83" points="393.8,406.2 -120.82,471.4 -121.75,463.29 "/>
    <polygon id="_118" class="fil84" points="393.8,406.2 -121.56,464.91 -122.4,456.78 "/>
    <polygon id="_119" class="fil85" points="393.8,406.2 -122.23,458.41 -122.97,450.27 "/>
    <polygon id="_120" class="fil85" points="393.8,406.2 -122.82,451.9 -123.46,443.76 "/>
    <polygon id="_121" class="fil86" points="393.8,406.2 -123.33,445.38 -123.87,437.23 "/>
    <polygon id="_122" class="fil87" points="393.8,406.2 -123.76,438.86 -124.2,430.7 "/>
    <polygon id="_123" class="fil88" points="393.8,406.2 -124.12,432.34 -124.46,424.17 "/>
    <polygon id="_124" class="fil89" points="393.8,406.2 -124.39,425.81 -124.64,417.64 "/>
    <polygon id="_125" class="fil90" points="393.8,406.2 -124.59,419.27 -124.74,411.1 "/>
    <polygon id="_126" class="fil91" points="393.8,406.2 -124.71,412.74 -124.76,404.57 "/>
    <polygon id="_127" class="fil92" points="393.8,406.2 -124.75,406.2 -124.7,398.03 "/>
    <polygon id="_128" class="fil93" points="393.8,406.2 -124.71,399.66 -124.56,391.49 "/>
    <polygon id="_129" class="fil94" points="393.8,406.2 -124.59,393.13 -124.34,384.96 "/>
    <polygon id="_130" class="fil95" points="393.8,406.2 -124.39,386.59 -124.05,378.43 "/>
    <polygon id="_131" class="fil96" points="393.8,406.2 -124.12,380.06 -123.67,371.91 "/>
    <polygon id="_132" class="fil97" points="393.8,406.2 -123.76,373.54 -123.22,365.38 "/>
    <polygon id="_133" class="fil98" points="393.8,406.2 -123.33,367.02 -122.69,358.87 "/>
    <polygon id="_134" class="fil98" points="393.8,406.2 -122.82,360.5 -122.08,352.36 "/>
    <polygon id="_135" class="fil99" points="393.8,406.2 -122.23,353.99 -121.39,345.86 "/>
    <polygon id="_136" class="fil100" points="393.8,406.2 -121.56,347.49 -120.63,339.37 "/>
    <polygon id="_137" class="fil101" points="393.8,406.2 -120.82,341 -119.79,332.9 "/>
    <polygon id="_138" class="fil102" points="393.8,406.2 -119.99,334.52 -118.86,326.43 "/>
    <polygon id="_139" class="fil103" points="393.8,406.2 -119.09,328.04 -117.86,319.97 "/>
    <polygon id="_140" class="fil104" points="393.8,406.2 -118.11,321.59 -116.79,313.53 "/>
    <polygon id="_141" class="fil105" points="393.8,406.2 -117.05,315.14 -115.63,307.1 "/>
    <polygon id="_142" class="fil106" points="393.8,406.2 -115.92,308.71 -114.4,300.68 "/>
    <polygon id="_143" class="fil107" points="393.8,406.2 -114.7,302.29 -113.09,294.29 "/>
    <polygon id="_144" class="fil108" points="393.8,406.2 -113.41,295.89 -111.71,287.9 "/>
    <polygon id="_145" class="fil109" points="393.8,406.2 -112.05,289.5 -110.24,281.54 "/>
    <polygon id="_146" class="fil110" points="393.8,406.2 -110.6,283.13 -108.7,275.2 "/>
    <polygon id="_147" class="fil111" points="393.8,406.2 -109.08,276.78 -107.09,268.87 "/>
    <polygon id="_148" class="fil112" points="393.8,406.2 -107.49,270.45 -105.4,262.57 "/>
    <polygon id="_149" class="fil112" points="393.8,406.2 -105.82,264.15 -103.63,256.29 "/>
    <polygon id="_150" class="fil113" points="393.8,406.2 -104.07,257.86 -101.79,250.03 "/>
    <polygon id="_151" class="fil114" points="393.8,406.2 -102.24,251.59 -99.87,243.79 "/>
    <polygon id="_152" class="fil115" points="393.8,406.2 -100.34,245.35 -97.88,237.58 "/>
    <polygon id="_153" class="fil116" points="393.8,406.2 -98.37,239.14 -95.81,231.4 "/>
    <polygon id="_154" class="fil117" points="393.8,406.2 -96.32,232.95 -93.67,225.24 "/>
    <polygon id="_155" class="fil118" points="393.8,406.2 -94.2,226.78 -91.45,219.11 "/>
    <polygon id="_156" class="fil119" points="393.8,406.2 -92,220.64 -89.16,213 "/>
    <polygon id="_157" class="fil120" points="393.8,406.2 -89.73,214.53 -86.8,206.93 "/>
    <polygon id="_158" class="fil121" points="393.8,406.2 -87.39,208.45 -84.36,200.89 "/>
    <polygon id="_159" class="fil122" points="393.8,406.2 -84.97,202.4 -81.85,194.88 "/>
    <polygon id="_160" class="fil123" points="393.8,406.2 -82.48,196.38 -79.27,188.9 "/>
    <polygon id="_161" class="fil124" points="393.8,406.2 -79.92,190.39 -76.62,182.95 "/>
    <polygon id="_162" class="fil124" points="393.8,406.2 -77.28,184.44 -73.9,177.04 "/>
    <polygon id="_163" class="fil125" points="393.8,406.2 -74.58,178.52 -71.1,171.16 "/>
    <polygon id="_164" class="fil126" points="393.8,406.2 -71.8,172.63 -68.24,165.32 "/>
    <polygon id="_165" class="fil127" points="393.8,406.2 -68.95,166.78 -65.3,159.51 "/>
    <polygon id="_166" class="fil128" points="393.8,406.2 -66.03,160.96 -62.3,153.74 "/>
    <polygon id="_167" class="fil129" points="393.8,406.2 -63.05,155.19 -59.22,148.01 "/>
    <polygon id="_168" class="fil129" points="393.8,406.2 -59.99,149.45 -56.08,142.32 "/>
    <polygon id="_169" class="fil130" points="393.8,406.2 -56.86,143.75 -52.87,136.67 "/>
    <polygon id="_170" class="fil131" points="393.8,406.2 -53.67,138.08 -49.59,131.06 "/>
    <polygon id="_171" class="fil132" points="393.8,406.2 -50.41,132.46 -46.24,125.49 "/>
    <polygon id="_172" class="fil133" points="393.8,406.2 -47.08,126.89 -42.83,119.97 "/>
    <polygon id="_173" class="fil134" points="393.8,406.2 -43.68,121.35 -39.35,114.48 "/>
    <polygon id="_174" class="fil135" points="393.8,406.2 -40.22,115.86 -35.81,109.05 "/>
    <polygon id="_175" class="fil136" points="393.8,406.2 -36.69,110.41 -32.2,103.65 "/>
    <polygon id="_176" class="fil137" points="393.8,406.2 -33.09,105 -28.52,98.31 "/>
    <polygon id="_177" class="fil138" points="393.8,406.2 -29.44,99.64 -24.78,93 "/>
    <polygon id="_178" class="fil139" points="393.8,406.2 -25.71,94.33 -20.98,87.75 "/>
    <polygon id="_179" class="fil140" points="393.8,406.2 -21.93,89.07 -17.11,82.55 "/>
    <polygon id="_180" class="fil141" points="393.8,406.2 -18.08,83.85 -13.19,77.39 "/>
    <polygon id="_181" class="fil142" points="393.8,406.2 -14.16,78.68 -9.2,72.29 "/>
    <polygon id="_182" class="fil143" points="393.8,406.2 -10.19,73.57 -5.14,67.23 "/>
    <polygon id="_183" class="fil144" points="393.8,406.2 -6.15,68.5 -1.03,62.23 "/>
    <polygon id="_184" class="fil145" points="393.8,406.2 -2.06,63.48 3.14,57.28 "/>
    <polygon id="_185" class="fil146" points="393.8,406.2 2.1,58.52 7.37,52.38 "/>
    <polygon id="_186" class="fil146" points="393.8,406.2 6.32,53.61 11.66,47.54 "/>
    <polygon id="_187" class="fil147" points="393.8,406.2 10.59,48.75 16.01,42.75 "/>
    <polygon id="_188" class="fil147" points="393.8,406.2 14.92,43.95 20.41,38.01 "/>
    <polygon id="_189" class="fil148" points="393.8,406.2 19.31,39.2 24.87,33.33 "/>
    <polygon id="_190" class="fil148" points="393.8,406.2 23.76,34.51 29.39,28.71 "/>
    <polygon id="_191" class="fil149" points="393.8,406.2 28.26,29.87 33.96,24.15 "/>
    <polygon id="_192" class="fil150" points="393.8,406.2 32.82,25.29 38.59,19.64 "/>
    <polygon id="_193" class="fil151" points="393.8,406.2 37.44,20.77 43.27,15.19 "/>
    <polygon id="_194" class="fil152" points="393.8,406.2 42.1,16.31 48.01,10.8 "/>
    <polygon id="_195" class="fil153" points="393.8,406.2 46.83,11.9 52.79,6.47 "/>
    <polygon id="_196" class="fil154" points="393.8,406.2 51.6,7.56 57.63,2.2 "/>
    <polygon id="_197" class="fil155" points="393.8,406.2 56.42,3.28 62.52,-2 "/>
    <polygon id="_198" class="fil156" points="393.8,406.2 61.3,-0.95 67.46,-6.15 "/>
    <polygon id="_199" class="fil156" points="393.8,406.2 66.23,-5.11 72.45,-10.23 "/>
    <polygon id="_200" class="fil157" points="393.8,406.2 71.21,-9.21 77.49,-14.25 "/>
    <polygon id="_201" class="fil158" points="393.8,406.2 76.23,-13.24 82.57,-18.2 "/>
    <polygon id="_202" class="fil159" points="393.8,406.2 81.31,-17.21 87.71,-22.1 "/>
    <polygon id="_203" class="fil159" points="393.8,406.2 86.43,-21.12 92.89,-25.92 "/>
    <polygon id="_204" class="fil160" points="393.8,406.2 91.6,-24.96 98.11,-29.68 "/>
    <polygon id="_205" class="fil160" points="393.8,406.2 96.81,-28.74 103.38,-33.38 "/>
    <polygon id="_206" class="fil160" points="393.8,406.2 102.07,-32.45 108.7,-37 "/>
    <polygon id="_207" class="fil161" points="393.8,406.2 107.37,-36.09 114.06,-40.56 "/>
    <polygon id="_208" class="fil161" points="393.8,406.2 112.72,-39.67 119.46,-44.06 "/>
    <polygon id="_209" class="fil162" points="393.8,406.2 118.11,-43.18 124.9,-47.48 "/>
    <polygon id="_210" class="fil162" points="393.8,406.2 123.54,-46.62 130.38,-50.84 "/>
    <polygon id="_211" class="fil163" points="393.8,406.2 129.01,-49.99 135.91,-54.12 "/>
    <polygon id="_212" class="fil164" points="393.8,406.2 134.53,-53.3 141.47,-57.34 "/>
    <polygon id="_213" class="fil164" points="393.8,406.2 140.08,-56.53 147.07,-60.48 "/>
    <polygon id="_214" class="fil165" points="393.8,406.2 145.67,-59.69 152.71,-63.56 "/>
    <polygon id="_215" class="fil165" points="393.8,406.2 151.3,-62.78 158.38,-66.56 "/>
    <polygon id="_216" class="fil166" points="393.8,406.2 156.96,-65.81 164.09,-69.49 "/>
    <polygon id="_217" class="fil167" points="393.8,406.2 162.66,-68.76 169.83,-72.35 "/>
    <polygon id="_218" class="fil168" points="393.8,406.2 168.4,-71.63 175.61,-75.14 "/>
    <polygon id="_219" class="fil169" points="393.8,406.2 174.17,-74.44 181.43,-77.85 "/>
    <polygon id="_220" class="fil170" points="393.8,406.2 179.97,-77.17 187.27,-80.49 "/>
    <polygon id="_221" class="fil170" points="393.8,406.2 185.81,-79.83 193.15,-83.06 "/>
    <polygon id="_222" class="fil171" points="393.8,406.2 191.68,-82.41 199.05,-85.55 "/>
    <polygon id="_223" class="fil172" points="393.8,406.2 197.58,-84.92 204.99,-87.97 "/>
    <polygon id="_224" class="fil173" points="393.8,406.2 203.5,-87.36 210.95,-90.31 "/>
    <polygon id="_225" class="fil174" points="393.8,406.2 209.46,-89.72 216.94,-92.58 "/>
    <polygon id="_226" class="fil174" points="393.8,406.2 215.45,-92.01 222.96,-94.77 "/>
    <polygon id="_227" class="fil174" points="393.8,406.2 221.46,-94.22 229.01,-96.89 "/>
    <polygon id="_228" class="fil175" points="393.8,406.2 227.5,-96.35 235.08,-98.93 "/>
    <polygon id="_229" class="fil176" points="393.8,406.2 233.56,-98.41 241.17,-100.89 "/>
    <polygon id="_230" class="fil176" points="393.8,406.2 239.65,-100.39 247.29,-102.77 "/>
    <polygon id="_231" class="fil176" points="393.8,406.2 245.76,-102.3 253.43,-104.58 "/>
    <polygon id="_232" class="fil177" points="393.8,406.2 251.89,-104.13 259.59,-106.31 "/>
    <polygon id="_233" class="fil178" points="393.8,406.2 258.05,-105.88 265.77,-107.97 "/>
    <polygon id="_234" class="fil179" points="393.8,406.2 264.22,-107.55 271.97,-109.54 "/>
    <polygon id="_235" class="fil179" points="393.8,406.2 270.42,-109.14 278.19,-111.04 "/>
    <polygon id="_236" class="fil179" points="393.8,406.2 276.63,-110.66 284.42,-112.46 "/>
    <polygon id="_237" class="fil180" points="393.8,406.2 282.87,-112.1 290.68,-113.79 "/>
    <polygon id="_238" class="fil181" points="393.8,406.2 289.11,-113.46 296.95,-115.06 "/>
    <polygon id="_239" class="fil181" points="393.8,406.2 295.38,-114.74 303.23,-116.24 "/>
    <polygon id="_240" class="fil181" points="393.8,406.2 301.66,-115.94 309.53,-117.34 "/>
    <polygon id="_241" class="fil181" points="393.8,406.2 307.95,-117.06 315.84,-118.36 "/>
    <polygon id="_242" class="fil181" points="393.8,406.2 314.26,-118.1 322.16,-119.3 "/>
    <polygon id="_243" class="fil182" points="393.8,406.2 320.58,-119.06 328.49,-120.17 "/>
    <polygon id="_244" class="fil182" points="393.8,406.2 326.91,-119.95 334.83,-120.95 "/>
    <polygon id="_245" class="fil183" points="393.8,406.2 333.25,-120.75 341.18,-121.65 "/>
    <polygon id="_246" class="fil183" points="393.8,406.2 339.6,-121.47 347.54,-122.28 "/>
    <polygon id="_247" class="fil183" points="393.8,406.2 345.95,-122.12 353.91,-122.82 "/>
    <polygon id="_248" class="fil183" points="393.8,406.2 352.32,-122.68 360.28,-123.28 "/>
    <polygon id="_249" class="fil183" points="393.8,406.2 358.69,-123.16 366.66,-123.67 "/>
    <polygon id="_250" class="fil183" points="393.8,406.2 365.07,-123.56 373.04,-123.97 "/>
    <polygon id="_251" class="fil183" points="393.8,406.2 371.45,-123.89 379.43,-124.19 "/>
    <polygon id="_252" class="fil183" points="393.8,406.2 377.83,-124.13 385.81,-124.33 "/>
    <polygon id="_253" class="fil183" points="393.8,406.2 384.22,-124.29 392.2,-124.39 "/>
    <polygon id="_254" class="fil183" points="393.8,406.2 390.61,-124.37 398.59,-124.37 "/>
    <polygon id="_255" class="fil183" points="393.8,406.2 396.99,-124.37 404.98,-124.27 "/>
    <polygon id="_256" class="fil183" points="393.8,406.2 403.38,-124.29 411.37,-124.09 "/>
    <polygon id="_257" class="fil183" points="393.8,406.2 409.77,-124.13 417.75,-123.83 "/>
    <polygon id="_258" class="fil183" points="393.8,406.2 416.15,-123.89 424.13,-123.48 "/>
    <polygon id="_259" class="fil183" points="393.8,406.2 422.53,-123.56 430.5,-123.06 "/>
    <polygon id="_260" class="fil183" points="393.8,406.2 428.91,-123.16 436.87,-122.56 "/>
    <polygon id="_261" class="fil183" points="393.8,406.2 435.28,-122.68 443.24,-121.98 "/>
    <polygon id="_262" class="fil183" points="393.8,406.2 441.65,-122.12 449.59,-121.31 "/>
    <polygon id="_263" class="fil183" points="393.8,406.2 448,-121.47 455.94,-120.57 "/>
    <polygon id="_264" class="fil182" points="393.8,406.2 454.35,-120.75 462.28,-119.75 "/>
    <polygon id="_265" class="fil182" points="393.8,406.2 460.69,-119.95 468.6,-118.84 "/>
    <polygon id="_266" class="fil181" points="393.8,406.2 467.02,-119.06 474.92,-117.86 "/>
    <polygon id="_267" class="fil181" points="393.8,406.2 473.34,-118.1 481.22,-116.8 "/>
    <polygon id="_268" class="fil181" points="393.8,406.2 479.65,-117.06 487.51,-115.66 "/>
    <polygon id="_269" class="fil181" points="393.8,406.2 485.94,-115.94 493.79,-114.43 "/>
    <polygon id="_270" class="fil181" points="393.8,406.2 492.22,-114.74 500.05,-113.14 "/>
    <polygon id="_271" class="fil180" points="393.8,406.2 498.49,-113.46 506.3,-111.76 "/>
    <polygon id="_272" class="fil179" points="393.8,406.2 504.73,-112.1 512.52,-110.3 "/>
    <polygon id="_273" class="fil179" points="393.8,406.2 510.97,-110.66 518.73,-108.76 "/>
    <polygon id="_274" class="fil179" points="393.8,406.2 517.18,-109.14 524.92,-107.15 "/>
    <polygon id="_275" class="fil178" points="393.8,406.2 523.38,-107.55 531.1,-105.46 "/>
    <polygon id="_276" class="fil177" points="393.8,406.2 529.55,-105.88 537.25,-103.69 "/>
    <polygon id="_277" class="fil176" points="393.8,406.2 535.71,-104.13 543.37,-101.84 "/>
    <polygon id="_278" class="fil176" points="393.8,406.2 541.84,-102.3 549.48,-99.92 "/>
    <polygon id="_279" class="fil176" points="393.8,406.2 547.95,-100.39 555.56,-97.92 "/>
    <polygon id="_280" class="fil175" points="393.8,406.2 554.04,-98.41 561.62,-95.84 "/>
    <polygon id="_281" class="fil174" points="393.8,406.2 560.1,-96.35 567.65,-93.69 "/>
    <polygon id="_282" class="fil174" points="393.8,406.2 566.14,-94.22 573.66,-91.46 "/>
    <polygon id="_283" class="fil174" points="393.8,406.2 572.15,-92.01 579.63,-89.15 "/>
    <polygon id="_284" class="fil173" points="393.8,406.2 578.14,-89.72 585.58,-86.77 "/>
    <polygon id="_285" class="fil172" points="393.8,406.2 584.1,-87.36 591.51,-84.32 "/>
    <polygon id="_286" class="fil171" points="393.8,406.2 590.02,-84.92 597.4,-81.79 "/>
    <polygon id="_287" class="fil170" points="393.8,406.2 595.92,-82.41 603.26,-79.18 "/>
    <polygon id="_288" class="fil170" points="393.8,406.2 601.79,-79.83 609.08,-76.51 "/>
    <polygon id="_289" class="fil169" points="393.8,406.2 607.63,-77.17 614.88,-73.76 "/>
    <polygon id="_290" class="fil168" points="393.8,406.2 613.43,-74.44 620.64,-70.93 "/>
    <polygon id="_291" class="fil167" points="393.8,406.2 619.2,-71.63 626.37,-68.04 "/>
    <polygon id="_292" class="fil166" points="393.8,406.2 624.94,-68.76 632.06,-65.07 "/>
    <polygon id="_293" class="fil165" points="393.8,406.2 630.64,-65.81 637.72,-62.03 "/>
    <polygon id="_294" class="fil165" points="393.8,406.2 636.3,-62.78 643.34,-58.92 "/>
    <polygon id="_295" class="fil164" points="393.8,406.2 641.93,-59.69 648.92,-55.74 "/>
    <polygon id="_296" class="fil164" points="393.8,406.2 647.52,-56.53 654.46,-52.49 "/>
    <polygon id="_297" class="fil163" points="393.8,406.2 653.07,-53.3 659.96,-49.17 "/>
    <polygon id="_298" class="fil162" points="393.8,406.2 658.59,-49.99 665.43,-45.78 "/>
    <polygon id="_299" class="fil162" points="393.8,406.2 664.06,-46.62 670.85,-42.32 "/>
    <polygon id="_300" class="fil161" points="393.8,406.2 669.49,-43.18 676.23,-38.79 "/>
    <polygon id="_301" class="fil161" points="393.8,406.2 674.88,-39.67 681.56,-35.2 "/>
    <polygon id="_302" class="fil160" points="393.8,406.2 680.23,-36.09 686.86,-31.54 "/>
    <polygon id="_303" class="fil160" points="393.8,406.2 685.53,-32.45 692.1,-27.81 "/>
    <polygon id="_304" class="fil160" points="393.8,406.2 690.79,-28.74 697.31,-24.02 "/>
    <polygon id="_305" class="fil159" points="393.8,406.2 696,-24.96 702.46,-20.16 "/>
    <polygon id="_306" class="fil159" points="393.8,406.2 701.17,-21.12 707.57,-16.24 "/>
    <polygon id="_307" class="fil158" points="393.8,406.2 706.29,-17.21 712.64,-12.25 "/>
    <polygon id="_308" class="fil157" points="393.8,406.2 711.37,-13.24 717.65,-8.2 "/>
    <polygon id="_309" class="fil156" points="393.8,406.2 716.39,-9.21 722.62,-4.08 "/>
    <polygon id="_310" class="fil156" points="393.8,406.2 721.37,-5.11 727.53,0.09 "/>
    <polygon id="_311" class="fil155" points="393.8,406.2 726.3,-0.95 732.39,4.33 "/>
    <polygon id="_312" class="fil154" points="393.8,406.2 731.18,3.28 737.21,8.63 "/>
    <polygon id="_313" class="fil153" points="393.8,406.2 736,7.56 741.97,12.99 "/>
    <polygon id="_314" class="fil152" points="393.8,406.2 740.77,11.9 746.68,17.41 "/>
    <polygon id="_315" class="fil151" points="393.8,406.2 745.5,16.31 751.33,21.88 "/>
    <polygon id="_316" class="fil150" points="393.8,406.2 750.16,20.77 755.93,26.42 "/>
    <polygon id="_317" class="fil149" points="393.8,406.2 754.78,25.29 760.48,31.01 "/>
    <polygon id="_318" class="fil148" points="393.8,406.2 759.34,29.87 764.97,35.67 "/>
    <polygon id="_319" class="fil148" points="393.8,406.2 763.84,34.51 769.4,40.37 "/>
    <polygon id="_320" class="fil147" points="393.8,406.2 768.29,39.2 773.77,45.13 "/>
    <polygon id="_321" class="fil147" points="393.8,406.2 772.68,43.95 778.09,49.95 "/>
    <polygon id="_322" class="fil146" points="393.8,406.2 777.01,48.75 782.35,54.82 "/>
    <polygon id="_323" class="fil146" points="393.8,406.2 781.28,53.61 786.55,59.75 "/>
    <polygon id="_324" class="fil145" points="393.8,406.2 785.5,58.52 790.7,64.72 "/>
    <polygon id="_325" class="fil144" points="393.8,406.2 789.66,63.48 794.78,69.75 "/>
    <polygon id="_326" class="fil143" points="393.8,406.2 793.75,68.5 798.8,74.83 "/>
    <polygon id="_327" class="fil142" points="393.8,406.2 797.79,73.57 802.76,79.96 "/>
    <polygon id="_328" class="fil141" points="393.8,406.2 801.76,78.68 806.65,85.14 "/>
    <polygon id="_329" class="fil140" points="393.8,406.2 805.68,83.85 810.49,90.37 "/>
    <polygon id="_330" class="fil139" points="393.8,406.2 809.53,89.07 814.26,95.65 "/>
    <polygon id="_331" class="fil138" points="393.8,406.2 813.31,94.33 817.97,100.97 "/>
    <polygon id="_332" class="fil137" points="393.8,406.2 817.04,99.64 821.61,106.34 "/>
    <polygon id="_333" class="fil136" points="393.8,406.2 820.69,105 825.19,111.76 "/>
    <polygon id="_334" class="fil135" points="393.8,406.2 824.29,110.41 828.7,117.22 "/>
    <polygon id="_335" class="fil134" points="393.8,406.2 827.82,115.86 832.15,122.72 "/>
    <polygon id="_336" class="fil133" points="393.8,406.2 831.28,121.35 835.53,128.27 "/>
    <polygon id="_337" class="fil132" points="393.8,406.2 834.68,126.89 838.84,133.86 "/>
    <polygon id="_338" class="fil131" points="393.8,406.2 838.01,132.46 842.08,139.49 "/>
    <polygon id="_339" class="fil130" points="393.8,406.2 841.27,138.08 845.26,145.16 "/>
    <polygon id="_340" class="fil129" points="393.8,406.2 844.46,143.75 848.37,150.87 "/>
    <polygon id="_341" class="fil129" points="393.8,406.2 847.59,149.45 851.41,156.62 "/>
    <polygon id="_342" class="fil128" points="393.8,406.2 850.65,155.19 854.38,162.41 "/>
    <polygon id="_343" class="fil127" points="393.8,406.2 853.63,160.96 857.28,168.23 "/>
    <polygon id="_344" class="fil126" points="393.8,406.2 856.55,166.78 860.11,174.09 "/>
    <polygon id="_345" class="fil125" points="393.8,406.2 859.4,172.63 862.87,179.99 "/>
    <polygon id="_346" class="fil124" points="393.8,406.2 862.18,178.52 865.56,185.92 "/>
    <polygon id="_347" class="fil124" points="393.8,406.2 864.88,184.44 868.17,191.88 "/>
    <polygon id="_348" class="fil123" points="393.8,406.2 867.52,190.39 870.72,197.88 "/>
    <polygon id="_349" class="fil122" points="393.8,406.2 870.08,196.38 873.19,203.91 "/>
    <polygon id="_350" class="fil121" points="393.8,406.2 872.57,202.4 875.59,209.96 "/>
    <polygon id="_351" class="fil120" points="393.8,406.2 874.99,208.45 877.92,216.05 "/>
    <polygon id="_352" class="fil119" points="393.8,406.2 877.33,214.53 880.17,222.17 "/>
    <polygon id="_353" class="fil118" points="393.8,406.2 879.6,220.64 882.35,228.31 "/>
    <polygon id="_354" class="fil117" points="393.8,406.2 881.8,226.78 884.45,234.49 "/>
    <polygon id="_355" class="fil116" points="393.8,406.2 883.92,232.95 886.48,240.68 "/>
    <polygon id="_356" class="fil115" points="393.8,406.2 885.97,239.14 888.44,246.91 "/>
    <polygon id="_357" class="fil114" points="393.8,406.2 887.94,245.35 890.32,253.15 "/>
    <polygon id="_358" class="fil113" points="393.8,406.2 889.84,251.59 892.12,259.43 "/>
    <polygon id="_359" class="fil112" points="393.8,406.2 891.67,257.86 893.85,265.72 "/>
    <polygon id="_360" class="fil112" points="393.8,406.2 893.42,264.15 895.51,272.03 "/>
    <polygon id="_361" class="fil111" points="393.8,406.2 895.09,270.45 897.08,278.37 "/>
    <polygon id="_362" class="fil110" points="393.8,406.2 896.68,276.78 898.58,284.72 "/>
    <polygon id="_363" class="fil109" points="393.8,406.2 898.2,283.13 900.01,291.09 "/>
    <polygon id="_364" class="fil108" points="393.8,406.2 899.65,289.5 901.36,297.48 "/>
    <polygon id="_365" class="fil107" points="393.8,406.2 901.01,295.89 902.63,303.89 "/>
    <polygon id="_366" class="fil106" points="393.8,406.2 902.3,302.29 903.82,310.31 "/>
    <polygon id="_367" class="fil105" points="393.8,406.2 903.52,308.71 904.94,316.75 "/>
    <polygon id="_368" class="fil104" points="393.8,406.2 904.65,315.14 905.97,323.2 "/>
    <polygon id="_369" class="fil103" points="393.8,406.2 905.71,321.59 906.93,329.66 "/>
    <polygon id="_370" class="fil102" points="393.8,406.2 906.69,328.04 907.82,336.13 "/>
    <polygon id="_371" class="fil101" points="393.8,406.2 907.59,334.52 908.62,342.62 "/>
    <polygon id="_372" class="fil100" points="393.8,406.2 908.42,341 909.35,349.11 "/>
    <polygon id="_373" class="fil99" points="393.8,406.2 909.16,347.49 910,355.62 "/>
    <polygon id="_374" class="fil98" points="393.8,406.2 909.83,353.99 910.57,362.13 "/>
    <polygon id="_375" class="fil98" points="393.8,406.2 910.42,360.5 911.06,368.64 "/>
    <polygon id="_376" class="fil97" points="393.8,406.2 910.93,367.02 911.47,375.17 "/>
    <polygon id="_377" class="fil96" points="393.8,406.2 911.36,373.54 911.8,381.7 "/>
    <polygon id="_378" class="fil95" points="393.8,406.2 911.72,380.06 912.06,388.23 "/>
    <polygon id="_379" class="fil94" points="393.8,406.2 911.99,386.59 912.24,394.76 "/>
    <polygon id="_380" class="fil93" points="393.8,406.2 912.19,393.13 912.34,401.3 "/>
    <polygon id="_381" class="fil92" points="393.8,406.2 912.31,399.66 912.36,407.83 "/>
    <polygon id="_382" class="fil91" points="393.8,406.2 912.35,406.2 912.3,414.37 "/>
    <polygon id="_383" class="fil90" points="393.8,406.2 912.31,412.74 912.16,420.91 "/>
    <polygon id="_384" class="fil89" points="393.8,406.2 912.19,419.27 911.94,427.44 "/>
    <polygon id="_385" class="fil88" points="393.8,406.2 911.99,425.81 911.65,433.97 "/>
    <polygon id="_386" class="fil87" points="393.8,406.2 911.72,432.34 911.27,440.49 "/>
    <polygon id="_387" class="fil86" points="393.8,406.2 911.36,438.86 910.82,447.02 "/>
    <polygon id="_388" class="fil85" points="393.8,406.2 910.93,445.38 910.29,453.53 "/>
    <polygon id="_389" class="fil85" points="393.8,406.2 910.42,451.9 909.68,460.04 "/>
    <polygon id="_390" class="fil84" points="393.8,406.2 909.83,458.41 908.99,466.54 "/>
    <polygon id="_391" class="fil83" points="393.8,406.2 909.16,464.91 908.23,473.03 "/>
    <polygon id="_392" class="fil82" points="393.8,406.2 908.42,471.4 907.39,479.5 "/>
    <polygon id="_393" class="fil81" points="393.8,406.2 907.59,477.88 906.46,485.97 "/>
    <polygon id="_394" class="fil80" points="393.8,406.2 906.69,484.36 905.46,492.43 "/>
    <polygon id="_395" class="fil79" points="393.8,406.2 905.71,490.81 904.39,498.87 "/>
    <polygon id="_396" class="fil78" points="393.8,406.2 904.65,497.26 903.23,505.3 "/>
    <polygon id="_397" class="fil77" points="393.8,406.2 903.52,503.69 902,511.72 "/>
    <polygon id="_398" class="fil76" points="393.8,406.2 902.3,510.11 900.69,518.11 "/>
    <polygon id="_399" class="fil75" points="393.8,406.2 901.01,516.51 899.31,524.5 "/>
    <polygon id="_400" class="fil74" points="393.8,406.2 899.65,522.9 897.84,530.86 "/>
    <polygon id="_401" class="fil73" points="393.8,406.2 898.2,529.27 896.3,537.2 "/>
    <polygon id="_402" class="fil72" points="393.8,406.2 896.68,535.62 894.69,543.53 "/>
    <polygon id="_403" class="fil71" points="393.8,406.2 895.09,541.95 893,549.83 "/>
    <polygon id="_404" class="fil71" points="393.8,406.2 893.42,548.25 891.23,556.11 "/>
    <polygon id="_405" class="fil70" points="393.8,406.2 891.67,554.54 889.39,562.37 "/>
    <polygon id="_406" class="fil69" points="393.8,406.2 889.84,560.81 887.47,568.61 "/>
    <polygon id="_407" class="fil68" points="393.8,406.2 887.94,567.05 885.48,574.82 "/>
    <polygon id="_408" class="fil67" points="393.8,406.2 885.97,573.26 883.41,581 "/>
    <polygon id="_409" class="fil66" points="393.8,406.2 883.92,579.45 881.27,587.16 "/>
    <polygon id="_410" class="fil65" points="393.8,406.2 881.8,585.62 879.05,593.29 "/>
    <polygon id="_411" class="fil64" points="393.8,406.2 879.6,591.76 876.76,599.4 "/>
    <polygon id="_412" class="fil63" points="393.8,406.2 877.33,597.87 874.4,605.47 "/>
    <polygon id="_413" class="fil62" points="393.8,406.2 874.99,603.95 871.96,611.51 "/>
    <polygon id="_414" class="fil61" points="393.8,406.2 872.57,610 869.45,617.52 "/>
    <polygon id="_415" class="fil60" points="393.8,406.2 870.08,616.02 866.87,623.5 "/>
    <polygon id="_416" class="fil59" points="393.8,406.2 867.52,622.01 864.22,629.45 "/>
    <polygon id="_417" class="fil59" points="393.8,406.2 864.88,627.96 861.5,635.36 "/>
    <polygon id="_418" class="fil58" points="393.8,406.2 862.18,633.88 858.7,641.24 "/>
    <polygon id="_419" class="fil57" points="393.8,406.2 859.4,639.77 855.84,647.08 "/>
    <polygon id="_420" class="fil56" points="393.8,406.2 856.55,645.62 852.9,652.89 "/>
    <polygon id="_421" class="fil55" points="393.8,406.2 853.63,651.44 849.9,658.66 "/>
    <polygon id="_422" class="fil54" points="393.8,406.2 850.65,657.21 846.82,664.39 "/>
    <polygon id="_423" class="fil54" points="393.8,406.2 847.59,662.95 843.68,670.08 "/>
    <polygon id="_424" class="fil53" points="393.8,406.2 844.46,668.65 840.47,675.73 "/>
    <polygon id="_425" class="fil52" points="393.8,406.2 841.27,674.32 837.19,681.34 "/>
    <polygon id="_426" class="fil51" points="393.8,406.2 838.01,679.94 833.84,686.91 "/>
    <polygon id="_427" class="fil50" points="393.8,406.2 834.68,685.51 830.43,692.43 "/>
    <polygon id="_428" class="fil49" points="393.8,406.2 831.28,691.05 826.95,697.92 "/>
    <polygon id="_429" class="fil48" points="393.8,406.2 827.82,696.54 823.41,703.35 "/>
    <polygon id="_430" class="fil47" points="393.8,406.2 824.29,701.99 819.8,708.75 "/>
    <polygon id="_431" class="fil46" points="393.8,406.2 820.69,707.4 816.12,714.09 "/>
    <polygon id="_432" class="fil45" points="393.8,406.2 817.04,712.76 812.38,719.4 "/>
    <polygon id="_433" class="fil44" points="393.8,406.2 813.31,718.07 808.58,724.65 "/>
    <polygon id="_434" class="fil43" points="393.8,406.2 809.53,723.33 804.71,729.85 "/>
    <polygon id="_435" class="fil42" points="393.8,406.2 805.68,728.55 800.79,735.01 "/>
    <polygon id="_436" class="fil41" points="393.8,406.2 801.76,733.72 796.8,740.11 "/>
    <polygon id="_437" class="fil40" points="393.8,406.2 797.79,738.83 792.74,745.17 "/>
    <polygon id="_438" class="fil39" points="393.8,406.2 793.75,743.9 788.63,750.17 "/>
    <polygon id="_439" class="fil38" points="393.8,406.2 789.66,748.92 784.46,755.12 "/>
    <polygon id="_440" class="fil37" points="393.8,406.2 785.5,753.88 780.23,760.02 "/>
    <polygon id="_441" class="fil37" points="393.8,406.2 781.28,758.79 775.94,764.86 "/>
    <polygon id="_442" class="fil36" points="393.8,406.2 777.01,763.65 771.59,769.65 "/>
    <polygon id="_443" class="fil36" points="393.8,406.2 772.68,768.45 767.19,774.39 "/>
    <polygon id="_444" class="fil35" points="393.8,406.2 768.29,773.2 762.73,779.07 "/>
    <polygon id="_445" class="fil35" points="393.8,406.2 763.84,777.89 758.21,783.69 "/>
    <polygon id="_446" class="fil34" points="393.8,406.2 759.34,782.53 753.64,788.25 "/>
    <polygon id="_447" class="fil33" points="393.8,406.2 754.78,787.11 749.01,792.76 "/>
    <polygon id="_448" class="fil32" points="393.8,406.2 750.16,791.63 744.33,797.21 "/>
    <polygon id="_449" class="fil31" points="393.8,406.2 745.5,796.09 739.59,801.6 "/>
    <polygon id="_450" class="fil30" points="393.8,406.2 740.77,800.5 734.81,805.93 "/>
    <polygon id="_451" class="fil29" points="393.8,406.2 736,804.84 729.97,810.2 "/>
    <polygon id="_452" class="fil28" points="393.8,406.2 731.18,809.12 725.08,814.4 "/>
    <polygon id="_453" class="fil27" points="393.8,406.2 726.3,813.35 720.14,818.55 "/>
    <polygon id="_454" class="fil27" points="393.8,406.2 721.37,817.51 715.15,822.63 "/>
    <polygon id="_455" class="fil26" points="393.8,406.2 716.39,821.61 710.11,826.65 "/>
    <polygon id="_456" class="fil25" points="393.8,406.2 711.37,825.64 705.03,830.6 "/>
    <polygon id="_457" class="fil24" points="393.8,406.2 706.29,829.61 699.89,834.5 "/>
    <polygon id="_458" class="fil24" points="393.8,406.2 701.17,833.52 694.71,838.32 "/>
    <polygon id="_459" class="fil23" points="393.8,406.2 696,837.36 689.49,842.08 "/>
    <polygon id="_460" class="fil23" points="393.8,406.2 690.79,841.14 684.22,845.78 "/>
    <polygon id="_461" class="fil23" points="393.8,406.2 685.53,844.85 678.9,849.4 "/>
    <polygon id="_462" class="fil22" points="393.8,406.2 680.23,848.49 673.54,852.96 "/>
    <polygon id="_463" class="fil22" points="393.8,406.2 674.88,852.07 668.14,856.46 "/>
    <polygon id="_464" class="fil21" points="393.8,406.2 669.49,855.58 662.7,859.88 "/>
    <polygon id="_465" class="fil21" points="393.8,406.2 664.06,859.02 657.22,863.24 "/>
    <polygon id="_466" class="fil20" points="393.8,406.2 658.59,862.39 651.69,866.52 "/>
    <polygon id="_467" class="fil19" points="393.8,406.2 653.07,865.7 646.13,869.74 "/>
    <polygon id="_468" class="fil19" points="393.8,406.2 647.52,868.93 640.53,872.88 "/>
    <polygon id="_469" class="fil18" points="393.8,406.2 641.93,872.09 634.89,875.96 "/>
    <polygon id="_470" class="fil18" points="393.8,406.2 636.3,875.18 629.22,878.96 "/>
    <polygon id="_471" class="fil17" points="393.8,406.2 630.64,878.21 623.51,881.89 "/>
    <polygon id="_472" class="fil16" points="393.8,406.2 624.94,881.16 617.77,884.75 "/>
    <polygon id="_473" class="fil15" points="393.8,406.2 619.2,884.03 611.99,887.54 "/>
    <polygon id="_474" class="fil14" points="393.8,406.2 613.43,886.84 606.17,890.25 "/>
    <polygon id="_475" class="fil13" points="393.8,406.2 607.63,889.57 600.33,892.89 "/>
    <polygon id="_476" class="fil13" points="393.8,406.2 601.79,892.23 594.45,895.46 "/>
    <polygon id="_477" class="fil12" points="393.8,406.2 595.92,894.81 588.55,897.95 "/>
    <polygon id="_478" class="fil11" points="393.8,406.2 590.02,897.32 582.61,900.37 "/>
    <polygon id="_479" class="fil10" points="393.8,406.2 584.1,899.76 576.65,902.71 "/>
    <polygon id="_480" class="fil9" points="393.8,406.2 578.14,902.12 570.66,904.98 "/>
    <polygon id="_481" class="fil9" points="393.8,406.2 572.15,904.41 564.64,907.17 "/>
    <polygon id="_482" class="fil9" points="393.8,406.2 566.14,906.62 558.59,909.29 "/>
    <polygon id="_483" class="fil8" points="393.8,406.2 560.1,908.75 552.52,911.33 "/>
    <polygon id="_484" class="fil7" points="393.8,406.2 554.04,910.81 546.43,913.29 "/>
    <polygon id="_485" class="fil7" points="393.8,406.2 547.95,912.79 540.31,915.17 "/>
    <polygon id="_486" class="fil7" points="393.8,406.2 541.84,914.7 534.17,916.98 "/>
    <polygon id="_487" class="fil6" points="393.8,406.2 535.71,916.53 528.01,918.71 "/>
    <polygon id="_488" class="fil5" points="393.8,406.2 529.55,918.28 521.83,920.37 "/>
    <polygon id="_489" class="fil4" points="393.8,406.2 523.38,919.95 515.63,921.94 "/>
    <polygon id="_490" class="fil4" points="393.8,406.2 517.18,921.54 509.41,923.44 "/>
    <polygon id="_491" class="fil4" points="393.8,406.2 510.97,923.06 503.18,924.86 "/>
    <polygon id="_492" class="fil3" points="393.8,406.2 504.73,924.5 496.92,926.19 "/>
    <polygon id="_493" class="fil2" points="393.8,406.2 498.49,925.86 490.65,927.46 "/>
    <polygon id="_494" class="fil2" points="393.8,406.2 492.22,927.14 484.37,928.64 "/>
    <polygon id="_495" class="fil2" points="393.8,406.2 485.94,928.34 478.07,929.74 "/>
    <polygon id="_496" class="fil2" points="393.8,406.2 479.65,929.46 471.76,930.76 "/>
    <polygon id="_497" class="fil2" points="393.8,406.2 473.34,930.5 465.44,931.7 "/>
    <polygon id="_498" class="fil1" points="393.8,406.2 467.02,931.46 459.11,932.57 "/>
    <polygon id="_499" class="fil1" points="393.8,406.2 460.69,932.35 452.77,933.35 "/>
    <polygon id="_500" class="fil0" points="393.8,406.2 454.35,933.15 446.42,934.05 "/>
    <polygon id="_501" class="fil0" points="393.8,406.2 448,933.87 440.06,934.68 "/>
    <polygon id="_502" class="fil0" points="393.8,406.2 441.65,934.52 433.69,935.22 "/>
    <polygon id="_503" class="fil0" points="393.8,406.2 435.28,935.08 427.32,935.68 "/>
    <polygon id="_504" class="fil0" points="393.8,406.2 428.91,935.56 420.94,936.07 "/>
    <polygon id="_505" class="fil0" points="393.8,406.2 422.53,935.96 414.56,936.37 "/>
    <polygon id="_506" class="fil0" points="393.8,406.2 416.15,936.29 408.17,936.59 "/>
    <polygon id="_507" class="fil0" points="393.8,406.2 409.77,936.53 401.79,936.73 "/>
    <polygon id="_508" class="fil0" points="393.8,406.2 403.38,936.69 395.4,936.79 "/>
    <polygon id="_509" class="fil0" points="393.8,406.2 396.99,936.77 390.61,936.77 "/>
   </g>
  </g>
  <path class="fil184" d="M219.46 406.43c0,-35.24 7.62,-66.66 22.87,-94.28 15.25,-27.61 36.51,-49.13 63.78,-64.54 27.28,-15.42 58.19,-23.13 92.75,-23.13 42.35,0 78.61,11.18 108.76,33.55 30.16,22.36 50.32,52.85 60.48,91.48l-95.55 0c-7.11,-14.91 -17.19,-26.26 -30.23,-34.05 -13.05,-7.8 -27.87,-11.69 -44.47,-11.69 -26.77,0 -48.45,9.31 -65.06,27.95 -16.6,18.63 -24.9,43.54 -24.9,74.71 0,31.17 8.3,56.07 24.9,74.7 16.61,18.64 38.29,27.96 65.06,27.96 16.6,0 31.42,-3.9 44.47,-11.69 13.04,-7.79 23.12,-19.15 30.23,-34.05l95.55 0c-10.16,38.62 -30.32,69.03 -60.48,91.22 -30.15,22.19 -66.41,33.29 -108.76,33.29 -34.56,0 -65.47,-7.71 -92.75,-23.12 -27.27,-15.42 -48.53,-36.85 -63.78,-64.29 -15.25,-27.45 -22.87,-58.79 -22.87,-94.02z"/>
 </g>
</svg>
