<svg xmlns="http://www.w3.org/2000/svg" xmlns:xlink="http://www.w3.org/1999/xlink" version="1.1" x="0px" y="0px" viewBox="0 0 100 125" enable-background="new 0 0 100 100" xml:space="preserve"><g><path d="M33.448,81.384c-1.002-1.308-1.332-2.859-0.867-4.292c0.547-1.688,2.077-2.871,4.096-3.166l6.252-0.908l2.445-4.952v-0.232   l0.469-0.706c0.919-1.691,2.458-2.694,4.157-2.694c1.7,0,3.238,1.003,4.157,2.694l0.47,0.706v0.232l2.444,4.952l6.254,0.909   c2.017,0.294,3.547,1.478,4.095,3.165c0.465,1.433,0.134,2.984-0.867,4.292c10.132-0.189,17.714-1.623,17.714-12.431   c0-11.789-9.02-21.471-20.538-22.523c-0.091,4.124-6.202,7.452-13.729,7.452c-7.528,0-13.638-3.328-13.728-7.452   c-11.517,1.053-20.538,10.734-20.538,22.523C15.733,79.76,23.314,81.194,33.448,81.384z"/><path d="M32.891,25.984c0.011,0.164,0.026,0.326,0.041,0.487c1.092,12.35,8.314,21.893,17.068,21.893   c8.751,0,15.978-9.542,17.07-21.893c0.014-0.162,0.027-0.324,0.04-0.487c0.078-0.535,0.13-1.079,0.161-1.628   c0.023-0.376,0.036-0.753,0.036-1.136c0-0.939-0.067-1.862-0.197-2.765C65.845,11.705,58.665,5,49.999,5   s-15.843,6.705-17.108,15.455c-0.131,0.902-0.198,1.826-0.198,2.765c0,0.383,0.015,0.76,0.035,1.136   C32.761,24.906,32.813,25.449,32.891,25.984z M39.325,16.161c0,0,4.98,2.418,10.674,2.574c5.694-0.156,10.677-2.574,10.677-2.574   c3.609,1.423,1.898,11.574,1.898,11.576c0.902-0.629,1.728-0.957,2.401-1.125C63.983,37.4,57.657,45.718,49.999,45.718   c-7.659,0-13.983-8.317-14.976-19.106c0.673,0.168,1.501,0.496,2.4,1.125C37.423,27.735,35.714,17.584,39.325,16.161z"/><path d="M63.592,79.626c1.094-1.065,0.753-2.118-0.758-2.339l-8.019-1.165l-3.585-7.264c0-0.002-0.002-0.002-0.002-0.003   c-0.338-0.684-0.783-1.026-1.229-1.026s-0.891,0.343-1.229,1.026c0,0.001-0.001,0.001-0.001,0.003l-3.585,7.264l-8.019,1.165   c-1.51,0.221-1.851,1.273-0.757,2.339l5.801,5.654l-1.37,7.985v0.001C40.654,94.358,41.072,95,41.831,95   c0.289,0,0.626-0.093,0.999-0.289l7.17-3.77l7.171,3.77C57.543,94.907,57.88,95,58.169,95c0.758,0,1.177-0.642,0.991-1.729   c0-0.002,0-0.004,0-0.005l-1.37-7.985"/></g><text x="0" y="115" fill="#000000" font-size="5px" font-weight="bold" font-family="'Helvetica Neue', Helvetica, Arial-Unicode, Arial, Sans-serif">Created by Wilson Joseph</text><text x="0" y="120" fill="#000000" font-size="5px" font-weight="bold" font-family="'Helvetica Neue', Helvetica, Arial-Unicode, Arial, Sans-serif">from the Noun Project</text></svg>