<?xml version="1.0" encoding="UTF-8"?>
<!DOCTYPE svg PUBLIC "-//W3C//DTD SVG 1.1//EN" "http://www.w3.org/Graphics/SVG/1.1/DTD/svg11.dtd">
<!-- Creator: CorelDRAW -->
<svg xmlns="http://www.w3.org/2000/svg" xml:space="preserve" width="50.8mm" height="50.8mm" version="1.1" style="shape-rendering:geometricPrecision; text-rendering:geometricPrecision; image-rendering:optimizeQuality; fill-rule:evenodd; clip-rule:evenodd"
viewBox="0 0 5080 5080"
 xmlns:xlink="http://www.w3.org/1999/xlink"
 xmlns:xodm="http://www.corel.com/coreldraw/odm/2003">
 <defs>
  <style type="text/css">
   <![CDATA[
    .fil0 {fill:url(#id0);fill-rule:nonzero}
    .fil1 {fill:url(#id1);fill-rule:nonzero}
    .fil7 {fill:url(#id2);fill-rule:nonzero}
    .fil10 {fill:url(#id3);fill-rule:nonzero}
    .fil4 {fill:url(#id4);fill-rule:nonzero}
    .fil6 {fill:url(#id5);fill-rule:nonzero}
    .fil9 {fill:url(#id6);fill-rule:nonzero}
    .fil12 {fill:url(#id7);fill-rule:nonzero}
    .fil2 {fill:url(#id8);fill-rule:nonzero}
    .fil5 {fill:url(#id9);fill-rule:nonzero}
    .fil8 {fill:url(#id10);fill-rule:nonzero}
    .fil11 {fill:url(#id11);fill-rule:nonzero}
    .fil3 {fill:url(#id12);fill-rule:nonzero}
   ]]>
  </style>
  <linearGradient id="id0" gradientUnits="userSpaceOnUse" x1="3607.55" y1="2014.17" x2="3051.63" y2="1051.29">
   <stop offset="0" style="stop-opacity:1; stop-color:#FAD804"/>
   <stop offset="0.560784" style="stop-opacity:1; stop-color:#FBE13A"/>
   <stop offset="1" style="stop-opacity:1; stop-color:#FDEA71"/>
  </linearGradient>
  <linearGradient id="id1" gradientUnits="userSpaceOnUse" x1="2800.75" y1="4421.01" x2="2279.25" y2="658.97">
   <stop offset="0" style="stop-opacity:1; stop-color:#2FCC75"/>
   <stop offset="0.560784" style="stop-opacity:1; stop-color:#57E396"/>
   <stop offset="1" style="stop-opacity:1; stop-color:#80FBB8"/>
  </linearGradient>
  <linearGradient id="id2" gradientUnits="userSpaceOnUse" x1="2630.42" y1="3567.47" x2="2618.94" y2="3354.34">
   <stop offset="0" style="stop-opacity:1; stop-color:#716F7D"/>
   <stop offset="0.560784" style="stop-opacity:1; stop-color:#A8A7AE"/>
   <stop offset="1" style="stop-opacity:1; stop-color:#E0E0E0"/>
  </linearGradient>
  <linearGradient id="id3" gradientUnits="userSpaceOnUse" xlink:href="#id2" x1="2630.42" y1="3972.82" x2="2618.94" y2="3759.71">
  </linearGradient>
  <linearGradient id="id4" gradientUnits="userSpaceOnUse" xlink:href="#id2" x1="2630.42" y1="3162.09" x2="2618.94" y2="2948.98">
  </linearGradient>
  <linearGradient id="id5" gradientUnits="userSpaceOnUse" xlink:href="#id2" x1="3303.39" y1="3076.76" x2="3142.62" y2="3034.33">
  </linearGradient>
  <linearGradient id="id6" gradientUnits="userSpaceOnUse" xlink:href="#id2" x1="3303.39" y1="3482.12" x2="3142.62" y2="3439.71">
  </linearGradient>
  <linearGradient id="id7" gradientUnits="userSpaceOnUse" xlink:href="#id2" x1="3303.39" y1="3887.49" x2="3142.62" y2="3845.06">
  </linearGradient>
  <linearGradient id="id8" gradientUnits="userSpaceOnUse" xlink:href="#id2" x1="3192.79" y1="3843.89" x2="2959.73" y2="3077.92">
  </linearGradient>
  <linearGradient id="id9" gradientUnits="userSpaceOnUse" xlink:href="#id2" x1="2094.83" y1="3076.76" x2="1934.06" y2="3034.33">
  </linearGradient>
  <linearGradient id="id10" gradientUnits="userSpaceOnUse" xlink:href="#id2" x1="2094.83" y1="3482.12" x2="1934.06" y2="3439.71">
  </linearGradient>
  <linearGradient id="id11" gradientUnits="userSpaceOnUse" xlink:href="#id2" x1="2094.83" y1="3887.49" x2="1934.06" y2="3845.06">
  </linearGradient>
  <linearGradient id="id12" gradientUnits="userSpaceOnUse" xlink:href="#id2" x1="2277.71" y1="3843.87" x2="2044.66" y2="3077.94">
  </linearGradient>
 </defs>
 <g id="Layer_x0020_1">
  <metadata id="CorelCorpID_0Corel-Layer"/>
  <g id="_2073198837040">
   <circle class="fil0" cx="3329.59" cy="1532.73" r="555.92"/>
   <polygon class="fil1" points="683.78,4292.07 1970.36,1382.46 2289.64,1731.99 2176.19,2339.11 2907.65,787.92 4396.22,4288.29 "/>
   <g>
    <polygon class="fil2" points="2978.77,4282.95 2979.93,2636.64 3173.75,2638.86 3172.58,4285.17 "/>
    <g>
     <polygon class="fil3" points="2258.68,4282.95 2257.51,2636.64 2063.69,2638.86 2064.86,4285.17 "/>
     <g>
      <g>
       <polygon class="fil4" points="2991.87,3145.13 2991.56,2962.54 2257.51,2965.98 2257.84,3148.55 "/>
       <polygon class="fil5" points="2064.75,3146.76 2063.77,2964.17 1964.14,2964.31 1965.14,3146.91 "/>
       <polygon class="fil6" points="3172.7,3146.76 3173.67,2964.17 3273.31,2964.31 3272.3,3146.91 "/>
      </g>
      <g>
       <polygon class="fil7" points="2991.87,3550.49 2991.56,3367.9 2257.51,3371.34 2257.84,3553.91 "/>
       <polygon class="fil8" points="2064.75,3552.12 2063.77,3369.53 1964.14,3369.67 1965.14,3552.27 "/>
       <polygon class="fil9" points="3172.7,3552.12 3173.67,3369.53 3273.31,3369.67 3272.3,3552.27 "/>
      </g>
      <g>
       <polygon class="fil10" points="2991.87,3955.85 2991.56,3773.27 2257.51,3776.71 2257.84,3959.28 "/>
       <polygon class="fil11" points="2064.75,3957.49 2063.77,3774.9 1964.14,3775.04 1965.14,3957.64 "/>
       <polygon class="fil12" points="3172.7,3957.49 3173.67,3774.9 3273.31,3775.04 3272.3,3957.64 "/>
      </g>
     </g>
    </g>
   </g>
  </g>
 </g>
</svg>
