<?xml version="1.0" encoding="UTF-8"?>
<!DOCTYPE svg PUBLIC "-//W3C//DTD SVG 1.1//EN" "http://www.w3.org/Graphics/SVG/1.1/DTD/svg11.dtd">
<!-- Creator: CorelDRAW -->
<svg xmlns="http://www.w3.org/2000/svg" xml:space="preserve" width="127mm" height="38.1mm" version="1.1" style="shape-rendering:geometricPrecision; text-rendering:geometricPrecision; image-rendering:optimizeQuality; fill-rule:evenodd; clip-rule:evenodd"
viewBox="0 0 12700 3810"
 xmlns:xlink="http://www.w3.org/1999/xlink"
 xmlns:xodm="http://www.corel.com/coreldraw/odm/2003">
 <defs>
  <style type="text/css">
   <![CDATA[
    .fil1 {fill:#FEFEFE;fill-rule:nonzero}
    .fil0 {fill:white;fill-rule:nonzero}
   ]]>
  </style>
 </defs>
 <g id="Layer_x0020_1">
  <metadata id="CorelCorpID_0Corel-Layer"/>
  <g id="_2649621538880">
   <path id="path13" class="fil0" d="M1515.51 3466.51l0.2 0.06 0.01 -0.46 10.65 -2.78c87.27,-22.77 172.23,-53.54 253.65,-91.73 81.32,-38.14 159.34,-83.85 232.83,-136.52l0.11 -0.05c37.72,-26.57 74.5,-54.89 110.04,-84.69 35.85,-30.04 70.33,-61.48 103.18,-94.02 32.9,-32.68 64.74,-66.98 95.28,-102.48 30.76,-35.8 60.2,-72.81 87.98,-110.64 28.02,-38.59 54.54,-78.12 79.32,-118.26 24.85,-40.26 48.28,-81.63 70.09,-123.77 22.12,-42.97 42.62,-86.74 61.28,-131.02 18.51,-43.93 35.35,-88.59 50.33,-133.74 31.09,-92.61 54.74,-187.6 70.57,-283.83 15.75,-95.73 23.82,-192.71 23.82,-289.73l-0.06 -688.8 -4.86 -1.08 -307.22 638.13 0 51.75c0,309.43 -97.86,608.72 -263.17,853.05 -165.52,244.63 -398.82,434.34 -669.41,524.24l-4.53 1.51 -4.55 -1.51c-270.64,-89.86 -503.88,-279.52 -669.32,-524.08 -165.32,-244.35 -263.13,-543.72 -263.13,-853.19l0 -734.16c312.24,-117.22 624.56,-234.24 936.95,-351.05 312.41,116.82 624.77,233.84 937.04,351.03l0.02 196.91c104.05,-58.05 208.25,-115.88 312.13,-174.25l0 -239.46 -1249.14 -468.47 -1249.31 468.52 0.03 950.82c0.09,97.27 8.19,194.54 24.02,290.58 15.82,96.02 39.45,190.85 70.6,283.19 30.15,90.51 67.34,178.61 111.07,263.43 43.77,84.88 94.02,166.34 150.24,243.44 27.53,37.64 56.7,74.41 87.21,109.95 30.7,35.76 62.75,70.28 95.82,103.23 32.68,32.38 67.03,63.68 102.73,93.64 35.57,29.85 72.33,58.23 109.99,84.85 75.04,53.68 154.81,100.19 238.14,138.96 83.18,38.68 170.04,69.71 259.37,92.48z"/>
   <path id="circle18" class="fil0" d="M1818.23 1484.7c0.02,166.59 -135.08,301.69 -301.67,301.69 -166.57,0 -301.67,-135.1 -301.67,-301.69 0,-166.59 135.1,-301.69 301.67,-301.69 166.59,0 301.69,135.1 301.69,301.69l-0.02 0z"/>
   <polygon id="path23" class="fil0" points="887.12,1904.82 1513.08,2882.06 2759.93,1061.4 2479.85,1338.96 1512.97,2339.48 887.12,1683.5 "/>
   <polygon class="fil1" points="4147.4,2148.61 4350.61,1480.2 4656.27,1480.2 4323.74,2417.32 3969.38,2417.32 3636.85,1480.2 3944.19,1480.2 "/>
   <path id="_1" class="fil1" d="M5660.56 1933.64c0,26.88 -1.67,54.87 -5.03,83.98l-649.94 0c4.48,58.22 23.23,102.72 56.26,133.51 33.03,30.79 73.61,46.18 121.76,46.18 71.65,0 121.48,-30.23 149.47,-90.68l305.65 0c-15.67,61.57 -43.94,117 -84.81,166.26 -40.87,49.26 -92.09,87.89 -153.67,115.88 -61.58,27.99 -130.43,41.99 -206.57,41.99 -91.81,0 -173.54,-19.6 -245.19,-58.78 -71.66,-39.19 -127.64,-95.17 -167.95,-167.95 -40.3,-72.77 -60.46,-157.86 -60.46,-255.27 0,-97.41 19.88,-182.5 59.62,-255.27 39.75,-72.78 95.45,-128.76 167.11,-167.95 71.65,-39.18 153.94,-58.78 246.87,-58.78 90.69,0 171.31,19.04 241.84,57.1 70.54,38.07 125.68,92.37 165.43,162.91 39.74,70.53 59.61,152.83 59.61,246.87zm-293.9 -75.57c0,-49.26 -16.79,-88.45 -50.38,-117.56 -33.59,-29.11 -75.57,-43.67 -125.96,-43.67 -48.14,0 -88.73,14 -121.75,41.99 -33.03,27.99 -53.47,67.74 -61.3,119.24l359.39 0z"/>
   <path id="_2" class="fil1" d="M6098.9 1636.39c33.59,-51.51 75.57,-92.09 125.95,-121.76 50.39,-29.67 106.37,-44.51 167.95,-44.51l0 303.98 -78.94 0c-71.65,0 -125.39,15.39 -161.22,46.18 -35.83,30.79 -53.74,84.81 -53.74,162.07l0 434.97 -287.19 0 0 -937.12 287.19 0 0 156.19z"/>
   <path id="_3" class="fil1" d="M6674.95 1382.79c-50.39,0 -91.53,-14.83 -123.44,-44.5 -31.91,-29.67 -47.87,-66.34 -47.87,-110.01 0,-44.78 15.96,-82.01 47.87,-111.68 31.91,-29.67 73.05,-44.5 123.44,-44.5 49.26,0 89.85,14.83 121.75,44.5 31.91,29.67 47.87,66.9 47.87,111.68 0,43.67 -15.96,80.34 -47.87,110.01 -31.9,29.67 -72.49,44.5 -121.75,44.5zm142.75 97.41l0 937.12 -287.19 0 0 -937.12 287.19 0z"/>
   <path id="_4" class="fil1" d="M7313.13 1612.87c27.99,-43.66 66.61,-78.93 115.88,-105.8 49.26,-26.87 106.92,-40.31 172.98,-40.31 77.25,0 147.23,19.6 209.93,58.78 62.7,39.19 112.24,95.17 148.63,167.95 36.39,72.77 54.58,157.3 54.58,253.59 0,96.29 -18.19,181.1 -54.58,254.43 -36.39,73.34 -85.93,129.88 -148.63,169.63 -62.7,39.74 -132.68,59.62 -209.93,59.62 -64.94,0 -122.32,-13.44 -172.14,-40.31 -49.83,-26.87 -88.73,-61.58 -116.72,-104.13l0 577.73 -287.19 0 0 -1383.85 287.19 0 0 132.67zm409.78 334.21c0,-71.66 -19.88,-127.92 -59.62,-168.78 -39.75,-40.87 -88.73,-61.3 -146.95,-61.3 -57.1,0 -105.53,20.71 -145.27,62.14 -39.75,41.42 -59.62,97.96 -59.62,169.62 0,71.65 19.87,128.2 59.62,169.62 39.74,41.43 88.17,62.14 145.27,62.14 57.1,0 105.8,-20.99 146.11,-62.98 40.3,-41.98 60.46,-98.8 60.46,-170.46z"/>
   <path id="_5" class="fil1" d="M8453.46 1636.39c33.59,-51.51 75.57,-92.09 125.95,-121.76 50.39,-29.67 106.37,-44.51 167.95,-44.51l0 303.98 -78.94 0c-71.65,0 -125.39,15.39 -161.22,46.18 -35.83,30.79 -53.74,84.81 -53.74,162.07l0 434.97 -287.19 0 0 -937.12 287.19 0 0 156.19z"/>
   <path id="_6" class="fil1" d="M9311.65 2430.76c-91.81,0 -174.38,-19.6 -247.72,-58.78 -73.33,-39.19 -130.99,-95.17 -172.98,-167.95 -41.98,-72.77 -62.98,-157.86 -62.98,-255.27 0,-96.29 21.28,-181.1 63.82,-254.43 42.55,-73.34 100.77,-129.6 174.66,-168.79 73.9,-39.18 156.75,-58.78 248.56,-58.78 91.81,0 174.66,19.6 248.55,58.78 73.9,39.19 132.12,95.45 174.67,168.79 42.54,73.33 63.81,158.14 63.81,254.43 0,96.29 -21.55,181.1 -64.65,254.43 -43.11,73.34 -101.89,129.6 -176.34,168.79 -74.46,39.18 -157.59,58.78 -249.4,58.78zm0 -248.56c54.86,0 101.61,-20.15 140.23,-60.46 38.63,-40.31 57.94,-97.97 57.94,-172.98 0,-75.02 -18.75,-132.68 -56.26,-172.98 -37.51,-40.31 -83.69,-60.46 -138.55,-60.46 -55.98,0 -102.45,19.87 -139.39,59.62 -36.95,39.74 -55.43,97.68 -55.43,173.82 0,75.01 18.2,132.67 54.59,172.98 36.38,40.31 82.01,60.46 136.87,60.46z"/>
   <path id="_7" class="fil1" d="M10425.12 1718.68l-154.51 0 0 698.64 -287.19 0 0 -698.64 -104.12 0 0 -238.48 104.12 0 0 -26.87c0,-115.32 33.03,-202.93 99.09,-262.83 66.06,-59.9 162.91,-89.85 290.54,-89.85 21.28,0 36.95,0.56 47.03,1.68l0 243.51c-54.86,-3.36 -93.49,4.48 -115.88,23.52 -22.4,19.03 -33.59,53.18 -33.59,102.44l0 8.4 154.51 0 0 238.48z"/>
   <path id="_8" class="fil1" d="M10703.9 1382.79c-50.39,0 -91.53,-14.83 -123.44,-44.5 -31.91,-29.67 -47.87,-66.34 -47.87,-110.01 0,-44.78 15.96,-82.01 47.87,-111.68 31.91,-29.67 73.05,-44.5 123.44,-44.5 49.26,0 89.85,14.83 121.75,44.5 31.91,29.67 47.87,66.9 47.87,111.68 0,43.67 -15.96,80.34 -47.87,110.01 -31.9,29.67 -72.49,44.5 -121.75,44.5zm142.75 97.41l0 937.12 -287.19 0 0 -937.12 287.19 0z"/>
   <polygon id="_9" class="fil1" points="11342.08,1174.54 11342.08,2417.32 11054.89,2417.32 11054.89,1174.54 "/>
   <path id="_10" class="fil1" d="M12433.7 1933.64c0,26.88 -1.67,54.87 -5.03,83.98l-649.94 0c4.48,58.22 23.23,102.72 56.26,133.51 33.03,30.79 73.61,46.18 121.76,46.18 71.65,0 121.48,-30.23 149.47,-90.68l305.65 0c-15.67,61.57 -43.94,117 -84.81,166.26 -40.87,49.26 -92.09,87.89 -153.67,115.88 -61.58,27.99 -130.43,41.99 -206.57,41.99 -91.81,0 -173.54,-19.6 -245.19,-58.78 -71.66,-39.19 -127.64,-95.17 -167.95,-167.95 -40.3,-72.77 -60.46,-157.86 -60.46,-255.27 0,-97.41 19.88,-182.5 59.62,-255.27 39.75,-72.78 95.45,-128.76 167.11,-167.95 71.65,-39.18 153.94,-58.78 246.87,-58.78 90.69,0 171.31,19.04 241.84,57.1 70.54,38.07 125.68,92.37 165.43,162.91 39.74,70.53 59.61,152.83 59.61,246.87zm-293.9 -75.57c0,-49.26 -16.79,-88.45 -50.38,-117.56 -33.59,-29.11 -75.57,-43.67 -125.96,-43.67 -48.14,0 -88.73,14 -121.75,41.99 -33.03,27.99 -53.47,67.74 -61.3,119.24l359.39 0z"/>
  </g>
 </g>
</svg>
