<svg xmlns="http://www.w3.org/2000/svg" xmlns:cc="http://creativecommons.org/ns#" xmlns:dc="http://purl.org/dc/elements/1.1/" width="320" height="74.125" viewBox="0 0 340 74.125">
  <!-- Metadata -->
  <metadata>
    <rdf:RDF xmlns:rdf="http://www.w3.org/1999/02/22-rdf-syntax-ns#">
      <cc:Work rdf:about="">
        <dc:format>image/svg+xml</dc:format>
        <dc:type rdf:resource="http://purl.org/dc/dcmitype/StillImage" />
        <dc:title>veriprofile.com</dc:title>
        <cc:license rdf:resource="http://creativecommons.org/licenses/by-nc-nd/4.0/" />
        <cc:attributionName>Nitin Mane</cc:attributionName>
        <cc:commercialUse rdf:resource="http://creativecommons.org/ns#No" />
        <cc:derivatives rdf:resource="http://creativecommons.org/ns#NoDerivatives" />
        <cc:distribution rdf:resource="http://creativecommons.org/ns#NoDistribution" />
        <cc:permission rdf:resource="http://veriprofile.com/permission" />

        <!-- Authorization Metadata -->
        <dc:rights>Copyright © Universal People Connect LLP</dc:rights>
        <dc:description>Unauthorized use is prohibited without explicit permission.</dc:description>
      </cc:Work>
    </rdf:RDF>
  </metadata>

  <!-- Legal Disclaimer -->
  <desc>veriprofile official logo. Unauthorized use is prohibited.</desc>
  <!--
  logo of "veriprofile"- a international web app of Universal People Connect LLP © 2023 by Nitin Mane is licensed under Attribution-NonCommercial-NoDerivatives 4.0 International. To view a copy of this license, visit http://creativecommons.org/licenses/by-nc-nd/4.0/
  -->

  <!-- Watermark -->
  <text x="10" y="40" fill="rgba(0,0,0,0.1)" font-size="2" font-family="Arial">© Universal People Connect</text>

  <g id="Group_31" data-name="Group 31" transform="translate(-51 -37.116)">
    <g id="Group_27" data-name="Group 27" transform="translate(55 37.116)">
      <path id="Path_60" data-name="Path 60" d="M37.65,4,8,15.119V37.69C8,56.406,20.638,73.862,37.65,78.125,54.661,73.862,67.3,56.406,67.3,37.69V15.119ZM59.887,37.69c0,14.825-9.451,28.538-22.237,32.726C24.863,66.228,15.412,52.552,15.412,37.69V20.27L37.65,11.931,59.887,20.27Z" transform="translate(-8 -4)" fill="#0303C9"/>
    </g>

    <path id="Path_61" data-name="Path 61" d="M0,0H61.133V61.133H0Z" transform="translate(51 41.024)" fill="none"/>
	
<g
       aria-label="veriprofile"
       transform="translate(123,88)"
       id="veriprofile"
       style="font-weight:700;font-size:30px;font-family:Poppins-Bold, Poppins;fill:#0303c9">
      <path
         d="M 0.68115234,-24.609375 H 8.5473633 l 6.1303707,17.0068359 6.108399,-17.0068359 h 7.888183 L 18.984375,0 h -8.635254 z"
         id="path70" />
      <path
         d="m 57.678223,-12.370605 v 2.24121 H 39.287109 q 0.285645,2.7685552 1.999512,4.1528325 1.713867,1.3842773 4.790039,1.3842773 2.48291,0 5.075684,-0.7250976 2.614746,-0.7470703 5.361328,-2.2412109 v 6.0644531 q -2.790527,1.05468747 -5.581055,1.58203122 -2.790527,0.54931641 -5.581055,0.54931641 -6.679687,0 -10.393066,-3.38378903 -3.691406,-3.4057617 -3.691406,-9.536133 0,-6.020508 3.625488,-9.470215 3.647461,-3.449707 10.019531,-3.449707 5.800782,0 9.272461,3.493653 3.493653,3.493652 3.493653,9.338379 z m -8.085938,-2.614747 q 0,-2.24121 -1.318359,-3.603515 -1.296387,-1.384278 -3.405762,-1.384278 -2.285156,0 -3.713379,1.296387 -1.428223,1.274414 -1.779785,3.691406 z"
         id="path72" />
      <path
         d="m 81.914062,-17.907715 q -1.032714,-0.483398 -2.065429,-0.703125 -1.010742,-0.241699 -2.043457,-0.241699 -3.032227,0 -4.680176,1.955566 -1.625977,1.933594 -1.625977,5.559082 V 0 h -7.866211 v -24.609375 h 7.866211 v 4.042969 q 1.516114,-2.416992 3.47168,-3.515625 1.977539,-1.120606 4.724121,-1.120606 0.395508,0 0.856934,0.04395 0.461426,0.02197 1.340332,0.131836 z"
         id="path74" />
      <path
         d="m 85.825195,-24.609375 h 7.866211 V 0 h -7.866211 z m 0,-9.580078 h 7.866211 v 6.416016 h -7.866211 z"
         id="path76" />
      <path
         d="M 109.11621,-3.5595703 V 9.3603516 H 101.25 V -24.609375 h 7.86621 v 3.603516 q 1.62598,-2.153321 3.60352,-3.164063 1.97754,-1.032715 4.54834,-1.032715 4.54834,0 7.4707,3.625489 2.92236,3.603515 2.92236,9.294433 0,5.6909181 -2.92236,9.3164064 -2.92236,3.60351563 -7.4707,3.60351563 -2.5708,0 -4.54834,-1.01074219 -1.97754,-1.03271484 -3.60352,-3.18603514 z m 5.22949,-15.9301757 q -2.52685,0 -3.88916,1.867676 -1.34033,1.845703 -1.34033,5.339355 0,3.4936525 1.34033,5.3613283 1.36231,1.8457031 3.88916,1.8457031 2.52686,0 3.84522,-1.8457031 1.34033,-1.8457031 1.34033,-5.3613283 0,-3.515625 -1.34033,-5.361328 -1.31836,-1.845703 -3.84522,-1.845703 z"
         id="path78" />
      <path
         d="m 151.74316,-17.907715 q -1.03271,-0.483398 -2.06543,-0.703125 -1.01074,-0.241699 -2.04345,-0.241699 -3.03223,0 -4.68018,1.955566 -1.62598,1.933594 -1.62598,5.559082 V 0 h -7.86621 v -24.609375 h 7.86621 v 4.042969 q 1.51612,-2.416992 3.47168,-3.515625 1.97754,-1.120606 4.72413,-1.120606 0.3955,0 0.85693,0.04395 0.46143,0.02197 1.34033,0.131836 z"
         id="path80" />
      <path
         d="m 167.36572,-19.577637 q -2.61474,0 -3.99902,1.889649 -1.36231,1.867675 -1.36231,5.405273 0,3.5375978 1.36231,5.4272463 1.38428,1.8676757 3.99902,1.8676757 2.5708,0 3.93311,-1.8676757 1.3623,-1.8896485 1.3623,-5.4272463 0,-3.537598 -1.3623,-5.405273 -1.36231,-1.889649 -3.93311,-1.889649 z m 0,-5.625 q 6.3501,0 9.90967,3.427735 3.58154,3.427734 3.58154,9.492187 0,6.0644533 -3.58154,9.4921877 -3.55957,3.42773433 -9.90967,3.42773433 -6.37207,0 -9.97558,-3.42773433 -3.58155,-3.4277344 -3.58155,-9.4921877 0,-6.064453 3.58155,-9.492187 3.60351,-3.427735 9.97558,-3.427735 z"
         id="path82" />
      <path
         d="m 204.43359,-34.189453 h 7.93213 v 6.416016 h -7.93213 z m -1.62597,0 v 5.163574 h -4.35059 q -1.64795,0 -2.28516,0.615234 -0.6372,0.593262 -0.6372,2.087403 v 1.713867 h 16.83105 V 0 h -7.93213 v -18.984375 h -8.89892 V 0 h -7.93213 v -18.984375 h -3.86719 v -5.625 h 3.86719 v -1.713867 q 0,-4.020996 2.24121,-5.932617 2.24121,-1.933594 6.94336,-1.933594 z"
         id="path84" />
      <path
         d="m 219.92432,-34.189453 h 7.86621 V 0 h -7.86621 z"
         id="path86" />
      <path
         d="m 259.91455,-12.370605 v 2.24121 h -18.39111 q 0.28564,2.7685552 1.99951,4.1528325 1.71387,1.3842773 4.79004,1.3842773 2.48291,0 5.07568,-0.7250976 2.61475,-0.7470703 5.36133,-2.2412109 v 6.0644531 q -2.79053,1.05468747 -5.58105,1.58203122 -2.79053,0.54931641 -5.58106,0.54931641 -6.67969,0 -10.39307,-3.38378903 -3.6914,-3.4057617 -3.6914,-9.536133 0,-6.020508 3.62549,-9.470215 3.64746,-3.449707 10.01953,-3.449707 5.80078,0 9.27246,3.493653 3.49365,3.493652 3.49365,9.338379 z m -8.08594,-2.614747 q 0,-2.24121 -1.31836,-3.603515 -1.29638,-1.384278 -3.40576,-1.384278 -2.28515,0 -3.71338,1.296387 -1.42822,1.274414 -1.77978,3.691406 z"
         id="path88" />
    </g>


    <circle id="PersonFace" data-name="PersonFace" cx="7.992" cy="7.992" r="7.992" transform="translate(77 58.193)" fill="#0303C9"/>

     <path id="Checkmark" data-name="Checkmark" d="M481.234,157.372l3.447-6.033,13.282,16.375,35.782-36.529,6.1-2.9-41.877,52.353Z" transform="translate(-414.412 -83.341)" fill="#37a73e"/>
  </g>
</svg>
